<?xml version="1.0" encoding="utf-8"?>
<!-- Generator: Adobe Illustrator 15.0.0, SVG Export Plug-In . SVG Version: 6.00 Build 0)  -->
<!DOCTYPE svg PUBLIC "-//W3C//DTD SVG 1.1//EN" "http://www.w3.org/Graphics/SVG/1.1/DTD/svg11.dtd">
<svg version="1.1" id="Layer_1" xmlns="http://www.w3.org/2000/svg" xmlns:xlink="http://www.w3.org/1999/xlink" x="0px" y="0px"
	 width="599.373px" height="190.314px" viewBox="0 0 599.373 190.314" enable-background="new 0 0 599.373 190.314"
	 xml:space="preserve">
<path fill-rule="evenodd" clip-rule="evenodd" fill="#B9C051" d="M407.89,190.077c0-8.062,2.18-26.365,1.962-26.801
	c-8.041,4.906-7.838,18.594-12.42,26.801c-4.357,0-8.717,0-13.073,0c5.594-11.346,0.511-20.125-1.308-32.684
	c-1.743-0.218-3.487-0.437-5.229-0.654c0.482,0.06-0.257,6.997-0.402,7.675c-0.526,2.455-1.686,4.608-3.025,6.703
	c-1.309,2.043-2.628,4.104-4.036,6.079c-1.503,2.105-3.542,3.935-4.836,6.174c-1.729,2.993,0.101,4.306,1.754,6.664
	c-5.625,0.604-11.597,0.043-17.256,0.043c-5.954,0-11.907,0-17.862,0c-11.926,0.001-23.854,0-35.78,0c-24.011,0-48.022,0-72.033,0
	c-23.991,0-47.982,0-71.973,0c-24.005,0-48.01,0-72.015,0c-23.988,0-47.976,0-71.963,0c-0.801,0-8.392,0-8.392,0
	c0-42.484,0-84.982,0-127.466c0,0.421,2.308-0.913,2.422-1.007c2.483-2.041,4.246-5.05,6.024-7.68c1.037-1.534,2.28-3.03,3.187-4.64
	c0.825-1.465,1.674-2.817,3.276-3.602c0.607-0.297,1.288-0.532,1.925-0.762c1.052-0.378,1.987-1.096,3.04-1.388
	c0.84-0.233,1.729-0.361,2.521-0.638c1.186-0.413,2.196-0.929,3.473-1.2c1.302-0.275,3.174-0.581,3.982-1.799
	c0.329-0.495,0.452-1.163,0.978-1.513c0.495-0.33,1.242-0.293,1.78-0.539c0.306-0.14,0.565-0.417,0.848-0.602
	c0.361-0.236,0.953-0.438,1.231-0.757c0.361-0.416,0.011-1.513,0.012-2.149c0-0.78-0.136-1.318-0.37-2.066
	c-0.375-1.203-0.584-2.338-1.309-3.337c-0.235-0.323-0.601-0.634-0.785-1.004c-0.208-0.418-0.252-0.945-0.382-1.377
	c-0.371-1.227-0.488-2.729-0.534-4.002c-0.035-0.945-0.04-2.353,1.085-2.651c0.02-0.533-0.03-0.602-0.311-0.972
	c-0.513-0.676-0.664-1.1-0.663-1.975c0.001-0.984-0.191-2.237,0.097-3.192c0.18-0.596,0.672-1.082,0.874-1.601
	c0.685-1.77,1.515-3.593,2.635-5.164c0.627-0.878,1.305-1.749,2.07-2.5c1.044-1.025,2.254-1.685,3.517-2.406
	c1.119-0.638,2.392-0.884,3.542-1.457c0.863-0.43,2.052-0.797,3.018-0.555c0.66,0.166,1.241,0.459,1.927,0.58
	c0.617,0.108,1.232,0.222,1.844,0.354c1.239,0.266,2.466,0.588,3.669,0.987c1.521,0.504,3.01,1.127,4.397,1.935
	c0.49,0.286,1.253,0.56,1.653,0.933c0.438,0.41,0.486,1.197,0.716,1.723c0.265,0.604,0.688,1.591,0.236,2.236
	c1.085,0.592,2.146,1.186,2.801,2.252c0.312,0.509,0.618,1.076,0.874,1.613c0.451,0.945,0.398,2.083,0.747,3.096
	c0.427,1.239,0.467,2.35,0.027,3.571c-0.258,0.718-0.247,1.28-0.694,1.854c-0.254,0.325-0.737,0.775-0.878,1.155
	c-0.209,0.568,0.051,1.317-0.156,1.936c-0.141,0.424-0.378,0.78-0.493,1.214c-0.229,0.862-0.198,1.843-0.339,2.73
	c-0.168,1.059,0.041,2.217-0.233,3.261c-0.148,0.565-0.305,1.249-0.624,1.744c-0.331,0.513-0.77,0.907-1.063,1.453
	c-0.166,0.309-0.293,0.617-0.497,0.831c-0.317,0.332-0.758,0.472-0.961,0.917c0.873,0.018,1.791,0.802,2.407,1.351
	c0.553,0.492,0.326,0.535,0.425,1.139c0.086,0.523,0.54,1.083,0.784,1.568c0.425,0.845,0.95,1.58,1.274,2.474
	c0.479,1.32,0.457,2.722,0.983,3.994c0.321,0.775,0.39,1.18,1.176,1.455c0.786,0.276,1.552,0.629,2.302,0.993
	c1.385,0.673,2.717,1.458,3.961,2.366c2.244,1.638,4.17,3.674,5.687,6.001c3.06,4.692,4.39,10.266,5.28,15.727
	c0.479,2.944,0.833,5.906,1.206,8.865c0.099,0.789,0.983,8.987,1.315,8.987c0.218,0,0.436,0,0.654,0c0.218,0,0.436,0,0.654,0
	c0.064,0,1.186-3.249,1.346-3.585c0.479-1.012,1.043-1.985,1.709-2.886c1.161-1.571,2.625-2.876,4.289-3.895
	c2.233-1.367,4.733-2.231,7.212-3.034c3.057-0.99,6.258-2.491,9.477-2.666c0.371-0.02,0.837,0.019,0.978-0.374
	c1.231-0.518,0.945-1.771,1.418-2.842c0.126-0.285,0.371-0.523,0.466-0.829c0.101-0.327,0.076-0.675,0.185-1.007
	c0.272-0.826,0.988-1.333,1.627-1.871c0.633-0.532,2.398-1.283,2.576-2.126c0.097-0.46-0.257-1.121-0.342-1.58
	c-0.099-0.54-0.144-1.087-0.221-1.63c-0.084-0.591-0.062-1.202-0.107-1.8c-0.1-1.313-0.131-2.439,0.312-3.704
	c0.085-0.241,0.287-0.523,0.331-0.763c0.083-0.448-0.208-0.921-0.308-1.344c-0.117-0.498-0.171-0.975-0.336-1.462
	c-0.171-0.508-0.346-1.078-0.324-1.619c0.022-0.562,0.324-0.792,0.549-1.263c0.542-1.129,0.868-2.353,1.452-3.476
	c0.704-1.354,1.524-2.672,2.568-3.792c0.401-0.431,0.953-1.094,1.479-1.363c0.606-0.311,1.31-0.155,1.958-0.216
	c0.634-0.06,1.333-0.231,1.959-0.386c1.464-0.363,2.766-1.207,4.248-1.513c2.312-0.478,4.44-0.268,6.653,0.504
	c1.467,0.511,2.971,1.127,4.385,1.763c1.179,0.529,1.518,1.605,2.268,2.569c0.896,1.15,1.78,2.422,1.747,3.898
	c-0.039,1.708,0.538,3.399,0.024,5.09c-0.317,1.04-0.928,2.003-1.059,3.097c-0.126,1.061,0.478,2.11,0.595,3.169
	c0.134,1.203,0.15,1.982-0.107,3.156c-0.215,0.981,0.041,1.792,0.094,2.739c0.051,0.874-0.131,2.113-0.42,2.942
	c-0.077,0.22-0.465,0.903-0.379,1.123c0.179,0.455,0.956,0.266,1.267,0.521c0.382,0.312,0.445,1.563,0.566,2.097
	c0.231,1.023,0.083,2.027,0.104,3.06c0.017,0.874,0.547,1.36,1.322,1.729c0.519,0.247,1.078,0.276,1.63,0.396
	c0.838,0.183,1.574,0.583,2.311,1.009c1.26,0.729,2.416,1.641,3.745,2.252c0.643,0.294,1.349,0.39,2.034,0.695
	c1.403,0.627,2.537,1.69,3.624,2.794c0.395,0.4,0.703,0.87,1.021,1.298c0.579,0.776,1.396,1.603,1.811,2.522
	c0.54,1.197,0.731,2.508,1.162,3.742c0.19,0.546,0.342,0.963,0.728,1.387c0.149,0.164,1.467,1.267,1.43,1.396
	c0.861-2.973,2.73-5.37,5.044-7.369c1.017-0.878,1.804-2.135,3.034-2.702c1.134-0.523,2.816-1.23,4.066-0.775
	c-0.261-0.214,0.053-1.243,0.107-1.636c0.118-0.853,0.261-1.595,0.212-2.478c-0.463-0.148-0.803-0.914-0.809-1.38
	c-0.004-0.358,0.116-0.651,0.217-0.986c0.118-0.392,0.642-1.101,0.601-1.462c-0.184-1.637-3.325-0.481-4.132-0.447
	c0.038-0.966,1.026-2.11,1.695-2.718c1.003-0.912,2.33-1.489,3.621-1.904c0.593-0.19,0.578-0.218,0.517-0.816
	c-0.045-0.435-0.164-0.769-0.275-1.189c-0.229-0.864-0.276-1.75-0.325-2.638c-0.03-0.566-0.226-1.188-0.141-1.749
	c0.171-1.139,0.864-2.368,1.255-3.455c0.662-1.843,1.311-3.555,2.197-5.297c0.349-0.686,0.846-1.36,1.038-2.125
	c0.228-0.906-0.154-1.878,0.255-2.754c0.66-1.413,1.384-2.889,2.533-3.999c0.448-0.433,1.072-0.566,1.618-0.83
	c0.833-0.4,1.597-1.031,2.516-1.077c1.903-0.096,3.73,0.543,5.608,0.716c1.469,0.136,2.854,0.353,4.351,0.253
	c1.289-0.086,2.695-0.488,3.988-0.211c0.574,0.123,1.152,0.437,1.7,0.654c0.613,0.243,1.394,0.418,1.925,0.811
	c0.359,0.266,0.394,0.533,0.623,0.866c1.009,1.469,1.852,3.014,2.801,4.525c0.771,1.226,1.477,2.959,1.333,4.435
	c-0.113,1.161-0.373,2.079-0.095,3.262c0.275,1.172,0.415,2.615,0.053,3.798c-0.276,0.905,0.006,1.913-0.407,2.774
	c-0.384,0.801-1.829,2.409-1.123,3.185c0.814,0.893,2.165,1.248,2.983,2.165c0.589,0.66,1.052,1.758,1.203,2.61
	c0.311,1.752-2.459,2.581-1.963,4.368c0.334,1.203,2.355,0.541,2.837-0.203c-0.164,1.259,1.733,1.447,2.532,1.659
	c1.022,0.269,2.252,0.512,3.131,1.134c0.833,0.591,1.687,1.237,2.504,1.872c0.949,1.476,1.898,2.953,2.848,4.429
	c0.371,0.577,0.801,1.071,1.197,1.615c0.438,0.603,0.569,1.423,0.818,2.114c0.151,0.42,0.43,1.164,0.477,1.55
	c0.087,0.722-0.229,1.638-0.221,2.438c0.009,0.877,0.361,1.778,0.385,2.605c0.035,1.244-0.104,2.909-0.169,4.271
	c-0.209,4.342,0.109,8.767,0.005,13.127c-0.037,1.546-0.245,18.835,1.197,18.835c0.218,0,0.436,0,0.654,0
	c0.436-0.218,0.872-0.436,1.308-0.653c0.137-4.954,0.273-9.907,0.411-14.861c0.161-5.759,0.689-11.426,3.882-16.389
	c3.059-4.752,7.582-8.393,11.357-12.543c1.036-1.139,1.912-2.302,3.013-3.364c0.885-0.854,2.119-1.243,3.333-1.221
	c0.057-0.989,0.014-1.98,0.164-2.925c-0.379,0.022-0.67-0.419-0.972-0.55c-0.33-0.142-0.696-0.13-1.045-0.207
	c-0.752-0.165-1.178-0.546-1.299-1.322c-0.167-1.061-0.059-2.321-0.053-3.39c0.026-4.67,0.386-10.22,3.206-14.154
	c2.194-3.064,5.772-5.735,9.489-6.475c4.175-0.829,10.088,1.204,12.311,4.866c2.015,3.319,2.399,7.341,2.952,11.094
	c0.165,1.12,0.298,2.327-0.069,3.426c-0.229,0.686-0.114,1.499-0.424,2.128c-0.244,0.496-0.653,0.92-0.929,1.42
	c-0.346,0.626-0.405,1.178-0.646,1.84c-0.418,1.144-1.462,1.878-2.142,2.801c-0.503,0.684-0.632,1.032-0.595,1.837
	c0.021,0.464,0.156,0.919,0.16,1.362c0.007,0.834-0.841,0.765-1.157,1.361c-0.185,0.349-0.048,0.665,0.285,0.873
	c0.216,0.135,0.43,0.104,0.653,0.227c0.258,0.144,0.356,0.414,0.553,0.576c0.365,0.302,0.857,0.525,1.234,0.817
	c0.406,0.314,0.832,0.93,1.322,1.119c0.432,0.167,0.93-0.03,1.362,0.242c0.99,0.623,1.05,2.257,1.303,3.27
	c0.373,1.492,0.746,2.985,1.119,4.478c0.731,2.927,1.627,5.862,2.206,8.824c1.005,5.145-2.492,8.457-3.268,11.766
	c-1.718,7.329,8.159,21.149,11.766,24.839c0.436-0.217,0.871-0.436,1.307-0.654c0.167-0.083-0.016-2.253,0.021-2.541
	c0.087-0.662,0.057-1.373,0.193-2.03c0.096-0.461,0.341-0.859,0.495-1.297c0.212-0.602,0.171-1.248,0.282-1.875
	c0.344-1.968,1.495-3.586,1.871-5.567c0.178-0.935,0.285-1.891,0.58-2.824c0.351-1.112,0.896-2.151,0.97-3.328
	c0.036-0.59,0.125-1.329,0.057-1.881c-0.089-0.706-0.495-1.485-0.658-2.202c-0.201-0.891-0.324-1.75-0.599-2.612
	c-0.234-0.732-0.261-1.42-0.206-2.211c0.082-1.237,0.622-2.047,1.026-3.172c-0.375-0.229-0.166-1.422-0.166-1.843
	c0-0.745,0.073-1.37,0.178-2.092c0.135-0.919,0.098-1.851,0.068-2.777c-0.026-0.854,0.102-1.545,0.251-2.383
	c0.318-1.776,0.649-3.551,0.999-5.322c0.574-2.914,1.189-5.823,1.91-8.705c0.303-1.212,0.628-2.069,1.318-3.086
	c0.635-0.936,1.626-1.643,2.353-2.553c0.461-0.577,1.155-1.309,1.028-2.122c-0.07-0.45-0.427-0.842-0.483-1.299
	c-0.044-0.371,0.202-0.623,0.201-0.93c-1.486,0.018-0.197-1.778,0.133-2.3c0.263-0.414,0.521-0.874,0.936-1.126
	c0.302-0.183,0.931-0.132,1.188-0.336c0.177-0.14,0.374-0.696,0.502-0.927c0.222-0.403,0.388-0.824,0.634-1.212
	c0.433-0.679,0.953-1.365,1.435-2.016c0.549-0.739,1.04-1.368,1.499-2.172c0.712-1.245,0.282-3.071,0.394-4.437
	c0.126-1.542,0.271-3.065,0.558-4.587c0.865-4.624,1.326-5.855,3.709-9.862c0.948-1.59,5.329-4.771,6.955-4.937
	c2.335-0.237,5.427-0.567,7.629,0.35c6.893,2.871,10.704,14.625,9.07,26.636c-0.146,1.069-0.323,2.242-0.066,3.296
	c0.355,1.461,1.147,2.765,1.721,4.143c0.207,0.496,0.507,0.958,0.698,1.455c0.302,0.775,0.329,1.644,0.507,2.473
	c0.639,2.988,0.216,5.938,0.568,8.983c0.122,1.051,0.43,2.026,0.334,3.095c-0.082,0.926-0.565,1.856-0.822,2.776
	c-0.713,2.554-0.369,4.193,0.286,6.728c0.475,1.829,0.434,3.804,0.423,5.681c-0.029,5.737-1.038,11.005-0.391,16.768
	c0.188,1.673-0.458,5.412,1.609,6.094c0.168,0.055,0.352,0.09,0.556,0.103c1.823,0.113,3.515-1.831,5.074-2.5
	c2.983-1.28,6.041-2.383,9.049-3.606c1.673-0.679,4.987-0.818,6.07-2.331c0.694-0.969,0.241-2.126,0.038-3.167
	c-0.284-1.446,0.098-2.756,0.502-4.134c0.221-0.752,0.272-1.496,0.554-2.238c0.419-1.099,0.945-2.21,1.681-3.103
	c0.235-0.285,0.332-0.739,0.498-1.01c0.358-0.584,1.242-2.201,2.014-2.201c0.055-1.071,0.141-2.461-0.044-3.521
	c-0.173-1.008-1.763-1.191-2.52-1.484c-1.048-0.404-2.113-0.746-3.115-1.263c-2.285-1.176-4.295-2.842-6.186-4.564
	c-0.397-0.363,0.107-2.96,0.173-3.49c0.265-2.083,0.798-4.128,1.543-6.088c1.584-4.167,4.22-6.612,7.227-9.781
	c1.442-1.521,2.466-3.271,4.114-4.576c2.346-1.859,5.035-3.513,7.282-5.451c1.948-1.68,2.545-4.503,4.292-6.443
	c0.794-0.881,2.37-1.959,2.769-3.084c0.442-1.249-0.011-3.539-0.056-4.869c-0.017-0.491-0.079-0.912-0.107-1.397
	c-0.023-0.438,0.102-0.919,0.043-1.332c-0.493-0.09-0.412-0.761-0.426-1.206c-0.01-0.303,0.036-0.557-0.107-0.805
	c-0.094-0.165-0.419-0.334-0.543-0.512c-0.503-0.715-0.876-1.664-0.643-2.538c0.14-0.53,0.548-0.845,0.801-1.314
	c0.357-0.661,0.441-1.158,0.937-1.754c0.526-0.631,1.168-1.05,1.774-1.595c0.535-0.48,0.894-1.072,1.48-1.499
	c0.695-0.506,1.53-0.824,2.308-1.18c0.913-0.417,1.803-0.61,2.765-0.654c2.203-0.1,4.384,0.166,6.602,0.164
	c2.714-0.003,3.628,1.74,4.405,3.944c0.262,0.741,0.735,1.297,1.014,2.016c0.214,0.55,0.302,1.18,0.418,1.755
	c0.104,0.514,0.256,1.494,0.839,1.66c0.702,0.2,1.548-0.722,2.24-0.857c0.048-1.264-0.36-2.432-0.439-3.68
	c-0.677,0.009-0.989-0.263-1.312-0.819c-0.161-0.276-0.515-0.477-0.639-0.754c-0.143-0.317-0.091-0.812-0.154-1.16
	c-0.168-0.902-0.479-1.799-0.339-2.729c0.113-0.766,1.188-1.961,1.956-1.106c-0.132-0.583-0.101-1.284-0.101-1.893
	c0-1.404-0.086-2.803,0.62-4.09c2.131-3.887,8.337-4.069,11.991-2.7c0.645,0.241,1.131,0.541,1.586,1.043
	c0.438,0.484,1.153,0.856,1.436,1.456c0.207,0.442,0.226,1.007,0.381,1.447c0.132,0.377,0.32,0.702,0.437,1.117
	c0.232,0.833,0.162,1.688,0.163,2.559c0,0.911,0.05,2.675-0.541,3.354c0.716-0.094,1.162,0.938,1.186,1.514
	c0.04,0.964-0.615,1.969-0.971,2.827c-0.185,0.447-0.126,0.796-0.618,1.017c-0.354,0.158-0.911,0.15-1.28,0.052
	c-0.015,1.065-0.572,2.034-0.663,3.104c-0.054,0.628-0.099,1.452,0,2.066c0.152,0.958,0.504,2.407,1.314,3.039
	c0.331,0.258,0.779,0.312,1.138,0.524c0.597,0.353,1.067,0.941,1.499,1.471c1.526,1.875,4.001,2.842,6.073,4.008
	c2.833-9.77,9.953-11,14.381-18.957c-0.336-1.022-0.836-1.447-1.478-2.283c-0.848-1.107-1.426-2.41-1.874-3.723
	c-0.475-1.393-0.353-2.786-0.354-4.261c0-1.001,0.235-1.983,0.268-2.981c0.027-0.87-0.43-1.648-0.269-2.518
	c0.178-0.961,0.617-1.963,0.928-2.895c0.318-0.949,0.724-1.856,1.455-2.564c0.352-0.339,0.796-0.485,1.242-0.591
	c1.706-0.409,3.791-0.224,5.575-0.164c1.713,0.058,2.707,0.337,3.415,2.083c0.35,0.866,0.911,1.388,1.223,2.228
	c0.524,1.409,0.744,2.64,1.493,3.989c0.676,1.215,1.249,2.527,1.025,3.96c-0.109,0.712-0.228,1.416-0.23,2.218
	c-0.004,1.154-0.759,1.644-1.431,2.442c-1.227,1.457-1.255,3.442-1.091,5.225c0.075,0.823,0.109,0.929,0.897,1.153
	c0.682,0.194,1.587,0.197,2.009,0.85c0.313,0.488,0.409,1.445,0.384,2.021c0.578,0.102,1.483-0.184,2.118-0.209
	c0.593-0.025,1.215-0.123,1.813-0.045c0.675,0.088,1.312,0.368,1.953,0.588c0.617,0.212,1.196,0.526,1.8,0.776
	c0.354,0.147,0.907,0.263,1.226,0.476c1.009,0.675,1.891,1.705,2.622,2.673c0.312,0.414,0.356,0.96,0.889,1.173
	c-0.489-0.763-0.865-1.764-0.931-2.66c-0.07-0.947,0.021-1.825-0.274-2.751c-0.347-1.08-0.273-2.143-0.273-3.271
	c0-0.496,0.021-0.979,0.055-1.471c0.096-1.402,0.398-2.483,1.22-3.623c0.706-0.981,1.629-1.82,2.703-2.384
	c2.182-1.146,4.893-1.353,7.301-1.016c1.147,0.161,2.103,0.503,3.126,1.008c0.897,0.443,2.19,0.376,1.9,1.792
	c0.848-0.678,1.804-0.563,2.285,0.448c0.424,0.892,0.938,1.539,1.127,2.526c0.18,0.946,0.178,1.994,0.165,2.966
	c-0.006,0.541-0.233,1.073-0.21,1.582c1.248,0.261,1.209,2.447,1.029,3.377c-0.107,0.558-0.538,0.966-0.764,1.477
	c-0.216,0.487-0.298,0.921-0.597,1.362c-0.4,0.587-0.519,0.9-0.776,1.528c-0.203,0.492-0.367,0.562-0.321,1.193
	c0.057,0.762,0.208,1.63,0.453,2.35c0.249,0.728,0.495,1.458,0.804,2.163c0.232,0.528,0.465,1.449,0.863,1.864
	c0.436,0.454,1.3,0.357,1.873,0.467c0.678,0.13,1.079,0.049,1.707-0.285c1.319-0.702,2.456-1.785,3.937-2.156
	c0.965-0.242,1.842-0.312,2.568-1.021c0.587-0.573,1.374-0.819,2.019-1.357c0.62-0.518,1.073-1.34,1.712-1.79
	c0.445-0.314,1.105-0.395,1.624-0.504c0.405-0.086,1.209,0.001,1.405-0.327c1.273-2.245-1.255-6.033-2.055-7.99
	c-0.581-1.417-0.903-2.923-1.025-4.447c-0.125-1.548-0.118-2.836,0.469-4.253c0.203-0.495,0.289-1.126,0.319-1.663
	c0.036-0.604-0.001-1.22,0-1.826c0.005-1.576-0.232-2.908,0.123-4.48c0.333-1.479,0.922-2.914,1.955-4.043
	c1.94-2.123,5.321-2.833,8.004-2.193c1.751,0.418,6.411,2.324,7.069,4.27c0.395,1.166,0.721,2.287,0.66,3.511
	c-0.065,1.357-0.03,2.74,0.007,4.098c0.514,0.023,0.998-0.126,1.358,0.281c0.349,0.395,0.449,1.109,0.434,1.629
	c-0.039,1.367-0.628,2.237-1.481,3.259c-0.731,0.874-1.295,1.977-1.511,3.106c-0.308,1.603-0.737,3.245-0.444,4.885
	c0.133,0.741,0.138,1.363,0.053,2.111c-0.099,0.848,0.167,1.581,0.994,1.922c0.922,0.379,1.719,0.07,2.499,0.884
	c0.555,0.578,0.614,0.663,1.312,0.381c1.499-0.604,3.912,0.381,3.873,2.184c1.488,0.089,3.145-0.451,4.418,0.499
	c0.52,0.388,0.912,0.86,1.412,1.265c1.241,1.002,1.618,2.641,2.673,3.769c0.459,0.492,1.177,0.623,1.722,1.004
	c0.734,0.516,1.325,1.218,1.888,1.91c0.682,0.839,1.269,1.799,1.502,2.851c0.266,1.199-0.201,2.471,0.638,3.458
	c0.515,0.605,0.742,0.612,1.547,0.612c0.569,0,1.683,0.236,2.189,0.001c0.482-0.224,0.098-0.458,0.077-0.917
	c-0.029-0.658,0.515-1.315,0.726-1.932c0.284-0.83,0.41-1.636,0.88-2.371c0.424-0.66,0.563-1.218,0.747-1.982
	c0.368-1.537,1.277-2.915,1.899-4.338c0.209-0.475,0.441-0.864,0.738-1.285c0.537-0.765,0.682-1.52,1.354-2.161
	c0.544-0.519,0.979-1.14,1.529-1.652c0.6-0.56,1.259-0.724,1.954-1.107c2.005-1.107-0.603-2.586-1.746-3.157
	c-0.886-0.443-1.725-0.685-2.684-0.954c-1.126-0.315-2.205-0.305-3.292-0.711c-0.559-0.208-1.105-0.498-1.658-0.679
	c-0.296-0.097-0.637-0.138-0.834-0.395c-0.223-0.294-0.229-0.954-0.324-1.309c-0.134-0.49-0.405-1.046-0.532-1.468
	c-0.099-0.327-0.265-0.941,0.106-1.189c-0.312-0.122-0.66-0.231-1.022-0.237c0.047-0.751-0.26-1.661-0.505-2.359
	c-0.151-0.432-0.396-0.598-0.607-0.944c-0.205-0.335-0.077-0.805-0.474-0.992c-0.584-0.275-1.534,0.133-2.168-0.093
	c-0.678-0.243-0.958-1.058-0.691-1.703c0.151-0.362,0.367-0.53,0.462-0.91c0.137-0.554,0.172-1.151,0.306-1.714
	c0.155-0.65,0.154-1.347-0.023-1.983c0.189-0.03,0.379-0.028,0.573-0.034c-1.042-0.454,0.095-1.515,0.658-1.689
	c0.134-0.042,0.754-5.371,0.927-6.002c0.945-3.462,3.146-7.5,5.908-9.807c1.696-1.419,5.984-1.948,8.127-1.959
	c2.602-0.014,5.053,0.868,7.071,2.506c4.169,3.383,5.268,8.406,6.364,13.365c0.388,1.747,0.813,3.482,1.315,5.201
	c0.831,2.853,1.32,4.892,3.223,7.257c1.459,1.815,3.131,3.443,4.795,5.067c3.824,3.731,7.262,7.631,9.472,12.558
	c1.08,2.409,1.883,4.936,2.486,7.504c2.085,8.875,0.42,17.656,0.979,26.617c0.157,2.52-1.321,31.911-0.812,31.977
	c0.639,0.081,1.471,0.002,0.914,1.012c-0.41,0.745-1.462,0.506-2.164,0.538c-0.034,0.397-0.358,0.714-0.501,1.09
	c-0.232,0.609-0.187,1.307-0.162,1.954c0.051,1.405,0.106,2.704-0.016,4.114c-0.54,6.158-1.941,11.247-5.78,16.286
	c-1.656,2.174-3.83,3.898-5.471,6.086c-1.519,2.025-1.802,4.455-2.306,6.857c-0.521,2.483-1.729,4.73-2.256,7.191
	c-0.438,2.055-0.48,4.24-0.651,6.33c-0.186,2.262,0.18,4.516,0.072,6.767c-0.075,1.562,0.614,6.712-1.408,7.278
	c-0.813,0.229-1.783,0.101-2.615,0.101c-1.134,0-2.267,0-3.4,0c-4.536,0-9.071,0-13.605,0c-2.948,0-5.896,0-8.845,0
	c-1.497,0-2.993,0-4.49,0c-2.44,0-4.271,0.854-5.302-2.08c-1.237-3.527-0.566-7.885-0.501-11.551
	c0.224-12.8,3.338-25.436,3.154-38.242c-0.018-1.238-1.524-12.604-1.051-12.841c-0.436,0.218-0.871,0.436-1.308,0.654
	c-0.22,0.11-0.336,3.757-0.429,4.232c-0.245,1.263-0.611,2.499-1.062,3.704c-0.819,2.191-1.961,4.226-2.967,6.333
	c-2.622,5.488-2.268,10.304-2.479,16.233c-0.13,3.618-0.257,6.901-1.262,10.384c-2.178,7.553-4.723,15.204-4.222,23.175
	c-7.407,0-14.816,0-22.224,0c-1.221-6.112-1.854-11.112-5.884-14.381c1.089,4.794,2.18,9.588,3.269,14.381
	c-18.954,0-37.914,0-56.87,0c0.219-0.654,0.438-1.308,0.654-1.962c1.959,0.075,0.473,1.276,1.961,0
	c0.134-0.188,6.598-58.904,0-67.327c0.699,0.892-1.88,6.625-2.339,7.66c-1.004,2.269-2.368,4.328-3.681,6.424
	c-2.897,4.627-5.04,9.57-5.589,15.053c-0.33,3.308-0.098,6.669,0.29,9.963c0.792,6.699,1.315,13.607-2.413,19.601
	c-2.051,3.296-3.688,6.656-3.917,10.588 M438.051,85.869c-1.005,0.655-2.03,1.218-2.957,1.899"/>
</svg>
