<?xml version="1.0" encoding="utf-8"?>
<!-- Generator: Adobe Illustrator 15.0.0, SVG Export Plug-In  -->
<!DOCTYPE svg PUBLIC "-//W3C//DTD SVG 1.1//EN" "http://www.w3.org/Graphics/SVG/1.1/DTD/svg11.dtd" [
	<!ENTITY ns_flows "http://ns.adobe.com/Flows/1.0/">
]>
<svg version="1.1"
	 xmlns="http://www.w3.org/2000/svg" xmlns:xlink="http://www.w3.org/1999/xlink" xmlns:a="http://ns.adobe.com/AdobeSVGViewerExtensions/3.0/"
	 x="0px" y="0px" width="339px" height="513px" viewBox="0 0 339 513" overflow="visible" enable-background="new 0 0 339 513"
	 xml:space="preserve">
<defs>
</defs>
<path fill="#FFFFFF" d="M52.751,216.394c-4.121,2.671-7.394,3.198-10.066,3.198c-7.902,0-12.986-3.428-16.307-7.81
	c-3.461-4.492-5.937-11.267-5.937-19.628c0-8.183,2.464-15.439,5.896-20.625c3.463-5.227,8.68-9.487,15.281-10.915
	c2.892-0.625,6.327-0.596,10.839,0.883l0.083,15.558c-2.395-2.771-5.9-5.206-10.618-4.395c-3.608,0.62-6.437,2.588-8.593,5.724
	c-2.244,3.268-3.795,7.85-3.788,13.02c0.009,5.585,1.7,9.437,3.534,11.689c0.864,1.101,3.877,4.437,9.169,4.198
	c2.657-0.119,6.325-1.245,10.422-6.571L52.751,216.394z"/>
<path fill="#FFFFFF" d="M108.491,156.288c6.588,5.285,11.106,14.068,11.292,25.242c0.161,9.689-3.117,19.808-10.512,27.631
	c-6.131,6.456-14.162,10.432-24.354,10.432c-10.646,0-17.521-4.67-21.432-9.027c-4.85-5.276-7.824-13.167-7.876-21.893
	c-0.05-8.523,3.028-17.634,7.473-23.824c3.419-4.763,9.952-11.03,21.107-13.444C93.499,149.389,101.766,150.876,108.491,156.288z
	 M72.065,172.625c-2.297,2.961-4.625,7.829-4.572,14.672c0.044,5.652,1.658,10.083,4.979,13.618
	c3.566,3.705,7.62,4.866,12.121,4.666c6.086-0.27,10.493-3.009,13.477-6.447c2.466-2.735,5.525-7.843,5.414-15.835
	c-0.099-7.145-2.896-12.017-5.807-14.642c-3.138-2.734-8.021-4.404-13.427-3.47C79.274,166.045,74.964,168.772,72.065,172.625z"/>
<path fill="#FFFFFF" d="M274.72,165.134c5.163,6.404,8.423,14.685,8.42,23.713c-0.004,7.792-2.536,15.611-8.405,21.599
	c-5.249,5.331-12.673,8.807-23.191,8.807c-12.652,0-21.888-5.203-27.586-10.379c-7.591-6.739-12.548-16.897-12.606-27.708
	c-0.059-10.609,5.17-20.444,12.255-25.643c5.129-3.763,14.205-7.339,27.787-4.337C261.239,153.363,269.006,158.04,274.72,165.134z
	 M236.381,168.323c-3.134,2.407-6.432,7.042-6.401,14.777c0.025,6.373,2.26,11.65,6.722,16.069
	c4.548,4.409,9.464,6.038,14.617,6.269c6.487,0.291,10.902-1.86,13.774-4.688c2.292-2.167,5.065-6.273,5.062-13.332
	c-0.005-6.331-2.44-11.376-5.095-14.573c-2.978-3.494-7.886-6.721-13.735-7.748C245.551,164.082,240.191,165.271,236.381,168.323z"
	/>
<path fill="#FFFFFF" d="M304.889,164.226c3.815,0.825,7.892,2.336,11.161,6.676c3.415,4.496,3.873,9.605,3.861,13.102
	c-0.021,6.382-1.935,9.75-3.447,11.592c-3.273,3.893-7.713,3.934-10.783,3.69l-6.375-0.501l-0.03,19.237l-11.149-0.052l0.041-57.361
	L304.889,164.226z M299.322,188.402l3.771,0.447c1.412,0.167,3.86,0.378,5.494-1.337c0.904-0.995,1.612-2.722,1.619-5.015
	c0.007-2.216-0.632-4.142-1.596-5.416c-1.494-2.015-3.677-2.641-5.693-2.996l-3.571-0.629L299.322,188.402z"/>
<g>
	<g>
		<path fill="#FFFFFF" d="M58.895,284.505c-8.267-0.83-12.387-1.284-20.593-2.269c-0.094,5.633-0.14,8.449-0.234,14.083
			c7.496,1.724,11.272,2.523,18.868,3.995c-0.173,6.436-0.26,9.652-0.433,16.087c-7.541-2.17-11.279-3.348-18.672-5.889
			c-0.168,10.117-0.335,20.234-0.505,30.352c-5.524-3.303-8.248-5.048-13.605-8.723c0-21.431,0-42.861,0-64.291
			c11.872,0.162,23.744,0.306,35.616,0.427C59.16,274.769,59.071,278.014,58.895,284.505z"/>
		<path fill="#FFFFFF" d="M126.967,281.651c7.185,12.534,9.248,26.54,9.509,40.433c0.246,13.04-3.183,27.396-10.928,38.473
			c-5.84,8.353-15.892,12.548-25.843,9.442c-11.016-3.438-19.295-12.211-24.782-22.049c-6.059-10.863-9.304-23.468-8.95-35.897
			c0.326-11.439,3.971-23.159,10.853-32.312c6.002-7.983,15.327-13.285,25.55-13.335
			C112.892,266.354,121.881,272.779,126.967,281.651z M87.399,294.673c-2.852,3.686-5.998,10.111-6.297,20.399
			c-0.247,8.482,1.46,15.763,5.272,22.404c3.94,6.866,8.595,10.194,13.678,11.368c6.646,1.535,11.461-1.441,14.73-5.777
			c2.581-3.424,5.939-10.332,6.177-22.321c0.213-10.743-2.347-18.946-5.176-23.706c-3.046-5.125-8.147-9.185-14.049-9.537
			C96.124,287.169,91.029,289.983,87.399,294.673z"/>
		<path fill="#FFFFFF" d="M170.89,268.849c8.2,0,13.387,4.56,16.471,9.387c2.754,4.31,5.731,12.056,5.848,23.999
			c0.066,6.777-0.711,15.256-4.917,22.168c-2.217,3.643-5.494,7.017-9.157,8.557c6.709,14.41,13.611,28.734,20.839,42.893
			c-7.562,0.863-11.358,1.155-18.955,1.465c-6.139-14.188-12.148-28.421-18.056-42.706c-0.045,14.271-0.091,28.542-0.136,42.813
			c-6.225-0.181-9.336-0.365-15.543-0.918c0.341-35.894,0.688-71.787,1.032-107.681C157.346,268.844,161.86,268.849,170.89,268.849z
			 M163.016,318.171c1.38,0.02,2.068,0.027,3.448,0.037c2.76,0.021,6.512-0.479,9.059-4.736c1.078-1.802,2.441-5.233,2.424-10.604
			c-0.021-6.187-1.787-9.438-3.057-11.051c-2.427-3.084-6.33-3.415-8.276-3.421c-1.401-0.004-2.104-0.007-3.505-0.016
			C163.078,298.311,163.048,308.24,163.016,318.171z"/>
		<path fill="#FFFFFF" d="M238.98,313.759c10.7-1.526,21.295-3.261,31.923-5.229c0.011,0.371,0.015,0.556,0.025,0.927
			c0.283,13.873-2.146,29.498-8.737,40.729c-5.32,9.066-11.769,16.907-22.747,20.289c-10.96,3.376-18.367-1.877-24.461-9.086
			c-8.235-9.743-10.176-26.166-10.349-39.162c-0.178-13.409,1.955-27.951,8.729-40.562c5.026-9.357,14.356-15.4,24.982-15.259
			c5.231,0.069,12.11,1.418,18.229,7.004c4.457,4.069,8.402,10.273,10.872,15.677c-5.223,4.566-7.833,6.961-13.075,11.882
			c-1.359-3.527-3.401-7.176-5.984-9.716c-2.985-2.936-6.313-4.219-9.99-4.005c-5.902,0.344-10.183,3.592-13.183,9.009
			c-3.448,6.228-5.247,15.28-5.055,24.929c0.236,11.828,3.19,19.098,5.998,22.944c3.983,5.459,8.452,6.421,13.442,5.284
			c6.457-1.471,9.74-5.802,11.154-7.982c0.45-0.694,3.267-5.168,4.322-12.395c-6.216,1.407-9.342,2.043-15.622,3.187
			C239.266,324.837,239.17,321.145,238.98,313.759z"/>
		<path fill="#FFFFFF" d="M317.095,280.382c-8.42,1.131-12.65,1.655-21.143,2.621c0.126,5.906,0.188,8.858,0.314,14.765
			c7.984-1.734,11.947-2.673,19.808-4.69c0.008,5.062,0.014,7.595,0.021,12.656c-7.711,2.976-11.618,4.357-19.512,6.915
			c0.145,6.776,0.215,10.166,0.359,16.942c8.195-3.676,12.234-5.67,20.151-9.978c0,5.013,0,7.516,0,12.528
			c-10.808,7.422-22.187,14.013-33.996,19.705c-0.765-27.854-1.532-55.709-2.292-83.563c12.097-0.123,24.192-0.269,36.288-0.433
			C317.095,272.863,317.095,275.369,317.095,280.382z"/>
	</g>
</g>
<path fill="#FFFFFF" d="M208.933,405.933H127.89c-1.356,0-2.456-0.769-2.456-1.716s1.1-1.715,2.456-1.715h81.043
	c1.357,0,2.457,0.768,2.457,1.715S210.29,405.933,208.933,405.933z"/>
<path fill="#FFFFFF" d="M192.001,415.365H144.82c-1.398,0-2.533-0.767-2.533-1.715s1.135-1.716,2.533-1.716h47.181
	c1.398,0,2.533,0.768,2.533,1.716S193.399,415.365,192.001,415.365z"/>
<path fill="#FFFFFF" d="M175.065,424.799h-13.309c-0.947,0-1.715-0.768-1.715-1.716c0-0.947,0.768-1.715,1.715-1.715h13.309
	c0.947,0,1.715,0.768,1.715,1.715C176.78,424.031,176.013,424.799,175.065,424.799z"/>
<path fill="#FFFFFF" d="M77.781,235.459h-8.088l-4.044,7.005l4.044,7.004h8.088l4.044-7.004L77.781,235.459z M73.736,246.577
	c-2.272,0-4.113-1.841-4.113-4.113c0-2.271,1.841-4.114,4.113-4.114c2.272,0,4.114,1.842,4.114,4.114
	C77.85,244.736,76.009,246.577,73.736,246.577z"/>
<path fill="#FFFFFF" d="M109.736,235.459h-8.087l-4.044,7.005l4.044,7.004h8.087l4.045-7.004L109.736,235.459z M105.692,246.577
	c-2.272,0-4.113-1.841-4.113-4.113c0-2.271,1.841-4.114,4.113-4.114c2.273,0,4.114,1.842,4.114,4.114
	C109.806,244.736,107.965,246.577,105.692,246.577z"/>
<path fill="#FFFFFF" d="M141.692,235.459h-8.088l-4.044,7.005l4.044,7.004h8.088l4.044-7.004L141.692,235.459z M137.648,246.577
	c-2.272,0-4.115-1.841-4.115-4.113c0-2.271,1.843-4.114,4.115-4.114c2.271,0,4.113,1.842,4.113,4.114
	C141.761,244.736,139.919,246.577,137.648,246.577z"/>
<path fill="#FFFFFF" d="M173.647,235.459h-8.088l-4.043,7.005l4.043,7.004h8.088l4.045-7.004L173.647,235.459z M169.604,246.577
	c-2.272,0-4.115-1.841-4.115-4.113c0-2.271,1.843-4.114,4.115-4.114c2.271,0,4.114,1.842,4.114,4.114
	C173.718,244.736,171.875,246.577,169.604,246.577z"/>
<path fill="#FFFFFF" d="M205.603,235.459h-8.088l-4.044,7.005l4.044,7.004h8.088l4.045-7.004L205.603,235.459z M201.56,246.577
	c-2.272,0-4.114-1.841-4.114-4.113c0-2.271,1.842-4.114,4.114-4.114c2.271,0,4.113,1.842,4.113,4.114
	C205.673,244.736,203.831,246.577,201.56,246.577z"/>
<path fill="#FFFFFF" d="M237.559,235.459h-8.088l-4.044,7.005l4.044,7.004h8.088l4.044-7.004L237.559,235.459z M233.515,246.577
	c-2.271,0-4.114-1.841-4.114-4.113c0-2.271,1.843-4.114,4.114-4.114s4.113,1.842,4.113,4.114
	C237.628,244.736,235.786,246.577,233.515,246.577z"/>
<path fill="#FFFFFF" d="M269.514,235.459h-8.088l-4.043,7.005l4.043,7.004h8.088l4.045-7.004L269.514,235.459z M265.471,246.577
	c-2.271,0-4.114-1.841-4.114-4.113c0-2.271,1.843-4.114,4.114-4.114c2.272,0,4.115,1.842,4.115,4.114
	C269.586,244.736,267.743,246.577,265.471,246.577z"/>
<path fill="#FFFFFF" d="M138.466,181.492l-8.549-0.266c-0.589-0.022-1.091,0.605-1.083,1.403c0.008,0.801,0.517,1.422,1.106,1.389
	l8.48-0.41C138.413,182.896,138.423,182.19,138.466,181.492z"/>
<path fill="#FFFFFF" d="M131.176,172.94c-0.565-0.163-1.203,0.333-1.388,1.114c-0.183,0.782,0.167,1.508,0.746,1.616l8.46,1.637
	c0.132-0.693,0.288-1.379,0.46-2.059L131.176,172.94z"/>
<path fill="#FFFFFF" d="M134.399,165.183c-0.509-0.293-1.248,0.031-1.615,0.746c-0.368,0.714-0.203,1.505,0.332,1.748l7.603,3.527
	c0.25-0.671,0.513-1.336,0.794-1.992L134.399,165.183z"/>
<path fill="#FFFFFF" d="M139.379,158.438c-0.423-0.406-1.219-0.268-1.744,0.337c-0.525,0.604-0.555,1.409-0.093,1.774l5.87,4.71
	c0.355-0.668,0.725-1.325,1.102-1.975L139.379,158.438z"/>
<path fill="#FFFFFF" d="M145.819,153.079c-0.317-0.497-1.121-0.55-1.776-0.087c-0.655,0.461-0.875,1.236-0.514,1.701l3.499,4.563
	c0.473-0.709,0.952-1.405,1.433-2.089L145.819,153.079z"/>
<path fill="#FFFFFF" d="M153.635,150.19l-0.27-0.784c-0.187-0.558-0.957-0.802-1.706-0.51c-0.748,0.293-1.149,0.994-0.908,1.53
	l0.99,2.261c0.46-0.611,0.916-1.211,1.361-1.797C153.284,150.654,153.457,150.425,153.635,150.19z"/>
<path fill="#FFFFFF" d="M178.032,150.175c0.23-0.541-0.184-1.235-0.938-1.513c-0.753-0.278-1.52-0.02-1.695,0.542l-1.71,5.29
	c0.165,1.434,0.522,2.615,1.169,3.322L178.032,150.175z"/>
<path fill="#FFFFFF" d="M184.837,154.989l0.5-0.679c0.354-0.471,0.119-1.243-0.545-1.691c-0.664-0.452-1.467-0.383-1.774,0.119
	l-0.716,1.154l0.95-0.417L184.837,154.989z"/>
<path fill="#FFFFFF" d="M191.429,160.059c0.454-0.372,0.413-1.178-0.125-1.772c-0.537-0.594-1.332-0.719-1.749-0.304l-4.43,4.332
	c0.021,0.888,0.129,1.799,0.305,2.738L191.429,160.059z"/>
<path fill="#FFFFFF" d="M195.979,167.101c0.53-0.253,0.683-1.047,0.302-1.753c-0.381-0.707-1.123-1.019-1.629-0.715l-8.065,4.765
	c0.206,0.642,0.425,1.295,0.653,1.958L195.979,167.101z"/>
<path fill="#FFFFFF" d="M198.713,175.043c0.576-0.117,0.913-0.853,0.712-1.631c-0.197-0.778-0.845-1.262-1.409-1.089l-9.475,2.838
	c0.209,0.631,0.415,1.27,0.614,1.917L198.713,175.043z"/>
<path fill="#FFFFFF" d="M200.54,181.986c-0.009-0.799-0.52-1.421-1.107-1.389l-9.222,0.447c0.149,0.684,0.283,1.374,0.395,2.072
	l8.851,0.274C200.045,183.414,200.547,182.786,200.54,181.986z"/>
<path fill="#FFFFFF" d="M198.195,191.374c0.566,0.164,1.204-0.332,1.389-1.114c0.184-0.782-0.166-1.509-0.746-1.617l-7.874-1.523
	c0.012,0.731-0.015,1.471-0.07,2.216L198.195,191.374z"/>
<path fill="#FFFFFF" d="M194.975,199.132c0.508,0.293,1.247-0.032,1.614-0.748c0.367-0.713,0.204-1.504-0.334-1.748l-6.152-2.854
	c-0.208,0.764-0.442,1.496-0.706,2.191L194.975,199.132z"/>
<path fill="#FFFFFF" d="M189.994,205.875c0.423,0.408,1.219,0.269,1.743-0.336c0.526-0.604,0.555-1.409,0.094-1.773l-4.545-3.647
	c-0.441,0.665-0.92,1.28-1.418,1.865L189.994,205.875z"/>
<path fill="#FFFFFF" d="M183.556,211.236c0.315,0.497,1.12,0.55,1.773,0.087c0.656-0.46,0.876-1.236,0.516-1.7l-3.396-4.429
	c-0.634,0.473-1.288,0.903-1.955,1.306L183.556,211.236z"/>
<path fill="#FFFFFF" d="M176.007,214.909c0.188,0.557,0.957,0.803,1.706,0.509c0.748-0.293,1.148-0.993,0.909-1.53l-2.315-5.293
	c-0.729,0.299-1.459,0.575-2.188,0.825L176.007,214.909z"/>
<path fill="#FFFFFF" d="M167.794,216.658c0.047,0.587,0.734,1.007,1.53,0.906c0.796-0.102,1.353-0.688,1.248-1.266l-0.948-5.554
	c-0.699,0.17-1.48,0.335-2.314,0.469L167.794,216.658z"/>
<path fill="#FFFFFF" d="M160.249,211.004l-0.82,5.393c-0.092,0.581,0.476,1.155,1.271,1.243c0.797,0.088,1.473-0.347,1.512-0.935
	l0.374-5.291c-0.379-0.037-0.753-0.084-1.109-0.15C161.064,211.188,160.655,211.099,160.249,211.004z"/>
<path fill="#FFFFFF" d="M151.341,214.141c-0.23,0.54,0.183,1.235,0.938,1.512c0.754,0.278,1.52,0.021,1.696-0.542l1.792-5.544
	c-0.721-0.296-1.431-0.617-2.123-0.969L151.341,214.141z"/>
<path fill="#FFFFFF" d="M144.038,210.005c-0.354,0.47-0.121,1.242,0.543,1.691c0.664,0.45,1.467,0.382,1.774-0.119l3.354-5.403
	c-0.617-0.452-1.217-0.926-1.792-1.424L144.038,210.005z"/>
<path fill="#FFFFFF" d="M143.396,199.717l-5.452,4.539c-0.455,0.373-0.413,1.178,0.126,1.772c0.536,0.594,1.331,0.72,1.75,0.305
	l4.932-4.824c-0.382-0.464-0.755-0.937-1.104-1.427C143.567,199.968,143.48,199.838,143.396,199.717z"/>
<path fill="#FFFFFF" d="M133.394,197.214c-0.531,0.254-0.682,1.047-0.301,1.752c0.38,0.707,1.124,1.02,1.628,0.716l6.413-3.789
	c-0.317-0.643-0.613-1.318-0.882-2.018L133.394,197.214z"/>
<path fill="#FFFFFF" d="M130.66,189.271c-0.576,0.118-0.914,0.852-0.713,1.63c0.198,0.779,0.846,1.262,1.409,1.088l7.71-2.309
	c-0.146-0.712-0.276-1.42-0.372-2.121L130.66,189.271z"/>
<path fill="#FFFFFF" d="M118.498,481.829h-8.262v4.779h7.854v4.815h-7.854v5.483h8.262v4.816h-13.967v-24.711h13.967V481.829z"/>
<path fill="#FFFFFF" d="M134.023,483.052c-1.853-1.668-3.446-1.779-4.149-1.779c-0.778,0-1.741,0.111-2.408,0.853
	c-0.371,0.37-0.63,0.927-0.63,1.556c0,0.593,0.185,1.038,0.556,1.371c0.593,0.556,1.445,0.778,3.112,1.408l1.852,0.704
	c1.075,0.407,2.408,0.963,3.372,1.889c1.445,1.371,1.815,3.149,1.815,4.595c0,2.556-0.889,4.779-2.186,6.112
	c-2.186,2.297-5.372,2.52-7.002,2.52c-1.778,0-3.334-0.259-4.891-1.037c-1.259-0.63-2.704-1.778-3.63-2.705l2.964-4.075
	c0.63,0.63,1.63,1.482,2.297,1.89c0.963,0.593,1.963,0.89,3.112,0.89c0.741,0,1.778-0.148,2.594-0.853
	c0.481-0.407,0.889-1.074,0.889-2.001c0-0.814-0.333-1.333-0.852-1.778c-0.667-0.556-2.186-1.111-2.89-1.37l-2.038-0.704
	c-1.148-0.407-2.482-0.927-3.445-1.964c-1.297-1.371-1.482-3.112-1.482-4.298c0-2.186,0.667-4.038,2.149-5.557
	c1.741-1.778,3.816-2.26,6.113-2.26c1.704,0,4.446,0.296,7.335,2.444L134.023,483.052z"/>
<path fill="#FFFFFF" d="M148.474,481.829v19.895h-5.706v-19.895h-5.372v-4.816h16.45v4.816H148.474z"/>
<path fill="#FFFFFF" d="M178.854,501.724H159.96l7.41-8.076c1.297-1.445,3.26-3.854,4.038-5.039
	c0.556-0.889,1.481-2.482,1.481-4.187c0-0.926-0.369-1.89-0.963-2.445c-0.481-0.444-1.296-0.704-2.26-0.704
	c-1.074,0-1.778,0.371-2.26,0.89c-0.667,0.741-1.038,2.075-1.038,3.038h-5.705c0.185-2.148,1.037-4.594,2.556-6.188
	c1.186-1.26,3.297-2.556,6.817-2.556c3.594,0,5.52,1.481,6.409,2.334c1.334,1.333,2.298,3.371,2.298,5.928
	c0,2.186-0.667,3.778-1.853,5.446c-1.074,1.481-2.371,2.741-3.965,4.26l-2.593,2.482h8.521V501.724z"/>
<path fill="#FFFFFF" d="M197.159,499.723c-1.445,1.408-3.594,2.557-6.631,2.557c-2.965,0-5.076-1.111-6.559-2.557
	c-2.408-2.371-3.557-6.112-3.557-10.336c0-4.261,1.148-8.04,3.557-10.374c1.482-1.444,3.594-2.556,6.559-2.556
	c3.037,0,5.186,1.148,6.631,2.556c2.408,2.334,3.557,6.113,3.557,10.374C200.716,493.61,199.567,497.352,197.159,499.723z
	 M188.268,482.273c-1.815,1.778-2.075,5.335-2.075,7.076c0,1.927,0.334,5.409,2.075,7.113c0.667,0.63,1.334,0.926,2.298,0.926
	c0.963,0,1.629-0.296,2.297-0.926c1.74-1.704,2.074-5.187,2.074-7.113c0-1.741-0.26-5.298-2.074-7.076
	c-0.668-0.63-1.334-0.927-2.297-0.927C189.602,481.347,188.935,481.644,188.268,482.273z"/>
<path fill="#FFFFFF" d="M206.09,481.829h-3.52v-4.816h9.226v24.711h-5.706V481.829z"/>
<path fill="#FFFFFF" d="M232.323,492.536h2.963v4.52h-2.963v4.668h-5.484v-4.668h-12.077v-3.261l10.892-16.782h6.67V492.536z
	 M226.839,492.536v-9.596l-6.076,9.596H226.839z"/>
<path fill="#FFFFFF" d="M183.384,156.859c0-0.129,0-0.261,0-0.392c-0.044,0-0.088,0-0.132,0c-1.085,1.175-2.173,2.348-3.259,3.521
	c-1.453,1.071-3.682,2.045-5.737,1.043c-5.564-2.708-3.151-14.236-2.216-20.6c-0.13-2.043-0.261-4.085-0.392-6.127
	c-1.45-7.012-5.421-12.163-11.082-14.995c-0.043,0.087-0.086,0.173-0.13,0.261c1.667,2.271,3.605,4.274,4.563,7.301
	c2.331,7.37-1.882,14.848-4.825,19.297c-7.268,10.988-23.439,26.072-17.731,45.502c0.735,2.503,2.129,4.958,3.521,6.911
	c3.448,4.842,9.105,8.74,16.036,10.039c2.836,0.533,6.103-0.236,8.084-0.782c8.914-2.449,15.61-6.548,17.601-15.906
	C190.508,178.667,178.696,167.097,183.384,156.859z M177.821,189.834c-0.669,3.148-5.73,8.057-10.469,8.791
	c-1.486,0.229-2.514,0.09-3.283,0.09c-0.157,0-0.231-0.01-0.232-0.01c-3.957-0.742-7.485-2.921-9.659-5.972
	c-0.988-1.387-1.738-2.81-2.059-3.904c-2.797-9.519,2.134-17.758,9.777-27.978c1.767,5.162,5.074,7.851,7.946,9.248
	c1.208,0.589,2.472,0.999,3.777,1.225c0.563,1.996,1.225,3.902,1.844,5.693C177.152,181.901,178.612,186.119,177.821,189.834z"/>
<rect x="66.015" y="464.294" display="none" fill="#FFFFFF" width="207.494" height="46.379"/>
<path fill="#FFFFFF" d="M276.081,513.245H63.442v-51.524h212.639V513.245z M68.588,508.1h202.348v-41.233H68.588V508.1z"/>
<path fill="#FFFFFF" d="M63.247,488.329h-46.55l15.686-25.18l-15.559-26.345h95.869l-49.445,25.603V488.329z M25.964,483.184h32.138
	v-25.047h2.205l31.259-16.187H25.837L38.4,463.22L25.964,483.184z"/>
<path fill="#FFFFFF" d="M322.83,488.329h-46.552v-25.92l-49.445-25.604h95.87l-15.562,26.347L322.83,488.329z M281.424,483.184
	h32.138l-12.437-19.962l12.563-21.271h-65.729l31.259,16.187h2.206V483.184z"/>
<rect x="26.105" y="445.009" fill="#FFFFFF" width="61.837" height="3.43"/>
<rect x="29.587" y="451.417" fill="#FFFFFF" width="44.664" height="3.43"/>
<rect x="33.622" y="457.821" fill="#FFFFFF" width="28.707" height="3.431"/>
<rect x="33.023" y="464.229" fill="#FFFFFF" width="28.707" height="3.431"/>
<rect x="29.541" y="470.638" fill="#FFFFFF" width="31.134" height="3.431"/>
<rect x="26.105" y="477.045" fill="#FFFFFF" width="34.57" height="3.43"/>
<rect x="251.165" y="444.834" fill="#FFFFFF" width="61.837" height="3.431"/>
<rect x="264.858" y="451.242" fill="#FFFFFF" width="44.663" height="3.431"/>
<rect x="276.781" y="457.647" fill="#FFFFFF" width="28.707" height="3.43"/>
<rect x="277.376" y="464.056" fill="#FFFFFF" width="28.713" height="3.431"/>
<rect x="278.436" y="470.464" fill="#FFFFFF" width="31.134" height="3.431"/>
<rect x="278.436" y="476.869" fill="#FFFFFF" width="34.566" height="3.43"/>
<path fill="#FFFFFF" d="M40.455,122.531c-2.082-0.077-3.864,2.147-3.835,4.981c0.016,1.631,0.631,3.035,1.54,3.926l31.312-8.003
	L40.455,122.531z"/>
<path fill="#FFFFFF" d="M42.649,102.837l56.599,10.947c2.052,0.38,3.923-0.392,4.233-1.715c0.312-1.323-1.015-2.848-3.023-3.424
	L44.927,93.158c-2.003-0.576-4.264,1.179-4.917,3.951S40.594,102.457,42.649,102.837z"/>
<path fill="#FFFFFF" d="M51.808,74.5l52.296,24.26c1.903,0.864,3.897,0.564,4.521-0.643c0.616-1.209-0.298-3.008-2.107-4.054
	L56.353,65.657c-1.807-1.042-4.425,0.111-5.725,2.646C49.325,70.834,49.908,73.636,51.808,74.5z"/>
<path fill="#FFFFFF" d="M112.454,85.312c1.638,1.296,3.651,1.479,4.552,0.449c0.893-1.034,0.439-3-1.074-4.447L74.005,41.746
	c-1.502-1.442-4.32-0.952-6.181,1.192c-1.866,2.141-1.968,4.998-0.332,6.291L112.454,85.312z"/>
<path fill="#FFFFFF" d="M123.803,74.212c1.283,1.648,3.199,2.305,4.314,1.519c1.112-0.789,1.139-2.809,0.017-4.574L96.836,22.743
	c-1.121-1.757-3.973-1.951-6.294-0.31c-2.321,1.635-3.1,4.383-1.819,6.03L123.803,74.212z"/>
<path fill="#FFFFFF" d="M137.44,66.154c0.853,1.908,2.549,3.006,3.816,2.512c1.263-0.497,1.765-2.449,1.099-4.43L123.592,9.724
	c-0.663-1.977-3.395-2.844-6.046-1.806c-2.653,1.035-4.072,3.518-3.219,5.423L137.44,66.154z"/>
<path fill="#FFFFFF" d="M152.565,61.624c0.365,2.06,1.747,3.527,3.099,3.36c1.347-0.174,2.311-1.956,2.144-4.037l-5.095-57.423
	c-0.169-2.08-2.603-3.578-5.425-3.211c-2.822,0.36-4.797,2.434-4.43,4.487L152.565,61.624z"/>
<path fill="#FFFFFF" d="M170.663,64.854c1.358,0.152,2.715-1.352,3.043-3.412l8.659-56.997c0.328-2.062-1.685-4.092-4.504-4.405
	c-2.822-0.318-5.221,1.229-5.354,3.308l-4.074,57.507C168.301,62.943,169.304,64.699,170.663,64.854z"/>
<path fill="#FFFFFF" d="M185.161,68.273c1.273,0.462,2.945-0.663,3.762-2.586l22.121-53.239c0.813-1.918-0.652-4.382-3.327-5.362
	c-2.673-0.986-5.386-0.068-6.011,1.921l-17.729,54.855C183.349,65.854,183.89,67.801,185.161,68.273z"/>
<path fill="#FFFFFF" d="M198.404,75.08c1.131,0.76,3.028,0.074,4.281-1.6l34.252-46.374c1.25-1.668,0.423-4.405-1.933-5.996
	c-2.352-1.6-5.2-1.357-6.287,0.422l-30.41,48.979C197.217,72.293,197.277,74.313,198.404,75.08z"/>
<path fill="#FFFFFF" d="M209.687,84.903c0.918,1.012,2.928,0.797,4.546-0.527l44.306-36.886c1.612-1.319,1.464-4.177-0.442-6.281
	c-1.902-2.107-4.724-2.549-6.204-1.082l-41.213,40.309C209.192,81.909,208.771,83.889,209.687,84.903z"/>
<path fill="#FFFFFF" d="M218.303,97.125c0.646,1.196,2.647,1.46,4.534,0.56l51.834-25.231c1.883-0.897,2.415-3.71,1.065-6.214
	c-1.347-2.506-3.983-3.611-5.772-2.536L220.329,93.03C218.54,94.105,217.656,95.926,218.303,97.125z"/>
<path fill="#FFFFFF" d="M227.976,112.619l56.387-12.006c2.041-0.419,3.239-3.021,2.525-5.782c-0.703-2.761-2.998-4.472-4.993-3.859
	l-55.224,16.539c-1.997,0.613-3.293,2.162-2.959,3.477c0.078,0.302,0.246,0.57,0.47,0.804l3.432,0.877
	C227.734,112.651,227.853,112.644,227.976,112.619z"/>
<path fill="#FFFFFF" d="M290.837,125.229c-0.028-2.832-1.835-5.038-3.923-4.922l-24.734,1.197l27.679,7.075
	C290.467,127.698,290.85,126.535,290.837,125.229z"/>
<polygon fill="#FFFFFF" points="289.843,128.218 262.164,121.143 227.598,112.307 224.166,111.43 169.586,97.479 69.455,123.074 
	38.143,131.077 0,140.827 0,336.89 152.483,461.721 160.376,461.721 5,334.521 5,144.71 57.689,131.242 87.453,123.634 
	169.586,102.64 245.188,121.964 274.511,129.459 334.175,144.71 334.175,334.521 178.796,461.721 186.688,461.721 339.175,336.89 
	339.175,140.827 "/>
</svg>
