<?xml version="1.0" encoding="utf-8"?>
<!-- Generator: Adobe Illustrator 15.0.0, SVG Export Plug-In  -->
<!DOCTYPE svg PUBLIC "-//W3C//DTD SVG 1.1//EN" "http://www.w3.org/Graphics/SVG/1.1/DTD/svg11.dtd" [
	<!ENTITY ns_flows "http://ns.adobe.com/Flows/1.0/">
]>
<svg version="1.1"
	 xmlns="http://www.w3.org/2000/svg" xmlns:xlink="http://www.w3.org/1999/xlink" xmlns:a="http://ns.adobe.com/AdobeSVGViewerExtensions/3.0/"
	 x="0px" y="0px" width="278px" height="137px" viewBox="-0.366 -0.119 278 137"
	 overflow="visible" enable-background="new -0.366 -0.119 278 137" xml:space="preserve">
<defs>
</defs>
<polygon fill="#8F113C" points="0,0 0,136.267 277.48,136.267 277.48,0 0,0 "/>
<polygon fill="#FFFFFF" points="21.573,46.091 21.573,21.155 35.444,21.155 35.444,26.651 27.905,26.651 27.905,30.8 35.042,30.8 
	35.042,36.296 27.905,36.296 27.905,40.595 35.444,40.595 35.444,46.091 21.573,46.091 "/>
<polygon fill="#FFFFFF" points="62.699,46.091 60.906,31.735 55.014,46.091 52.488,46.091 46.852,31.735 44.766,46.091 
	38.471,46.091 42.607,21.155 48.865,21.155 53.806,34.464 59.04,21.155 65.372,21.155 69.031,46.091 62.699,46.091 "/>
<path fill="#FFFFFF" d="M83.243,37.829h-3.989v8.263h-6.332V21.155h10.101c2.379,0,4.282,0.336,6.076,2.093
	c1.72,1.682,2.379,3.813,2.379,6.207C91.478,34.875,88.55,37.829,83.243,37.829L83.243,37.829z M81.413,26.389h-2.159v6.206h2.123
	c2.086,0,3.477-0.747,3.477-3.065C84.853,27.249,83.499,26.389,81.413,26.389L81.413,26.389z"/>
<polygon fill="#FFFFFF" points="94.622,46.091 94.622,21.155 100.953,21.155 100.953,40.595 108.566,40.595 108.566,46.091 
	94.622,46.091 "/>
<path fill="#FFFFFF" d="M123.509,46.988c-7.503,0-13.505-5.458-13.505-13.271c0-7.813,6.002-13.309,13.505-13.309
	c7.503,0,13.505,5.496,13.505,13.309C137.014,41.53,131.012,46.988,123.509,46.988L123.509,46.988z M123.509,26.688
	c-3.806,0-6.881,3.141-6.881,7.028c0,3.851,3.111,6.991,6.881,6.991s6.88-3.103,6.88-6.991
	C130.389,29.829,127.315,26.688,123.509,26.688L123.509,26.688z"/>
<polygon fill="#FFFFFF" points="151.246,34.128 151.246,46.091 144.879,46.091 144.879,34.128 136.059,21.155 143.635,21.155 
	148.246,27.959 152.676,21.155 160.359,21.155 151.246,34.128 "/>
<polygon fill="#FFFFFF" points="184.188,46.091 182.393,31.735 176.502,46.091 173.975,46.091 168.34,31.735 166.254,46.091 
	159.959,46.091 164.094,21.155 170.352,21.155 175.293,34.464 180.527,21.155 186.857,21.155 190.52,46.091 184.188,46.091 "/>
<polygon fill="#FFFFFF" points="194.408,46.091 194.408,21.155 208.279,21.155 208.279,26.651 200.74,26.651 200.74,30.8 
	207.879,30.8 207.879,36.296 200.74,36.296 200.74,40.595 208.279,40.595 208.279,46.091 194.408,46.091 "/>
<polygon fill="#FFFFFF" points="230.818,46.091 219.143,30.837 219.143,46.091 212.811,46.091 212.811,21.155 219.143,21.155 
	230.818,36.409 230.818,21.155 237.15,21.155 237.15,46.091 230.818,46.091 "/>
<polygon fill="#FFFFFF" points="251.219,26.651 251.219,46.091 244.887,46.091 244.887,26.651 239.727,26.651 239.727,21.155 
	256.488,21.155 256.488,26.651 251.219,26.651 "/>
<path fill="#FFFFFF" d="M41.251,91.189c-11.255,0-20.259-8.188-20.259-19.909c0-11.72,9.004-19.963,20.259-19.963
	c11.254,0,20.258,8.244,20.258,19.963C61.509,83.002,52.505,91.189,41.251,91.189L41.251,91.189z M41.251,60.737
	c-5.71,0-10.322,4.711-10.322,10.543c0,5.777,4.667,10.487,10.322,10.487c5.654,0,10.321-4.655,10.321-10.487
	S46.96,60.737,41.251,60.737L41.251,60.737z"/>
<polygon fill="#FFFFFF" points="93.46,89.844 75.947,66.963 75.947,89.844 66.45,89.844 66.45,52.438 75.947,52.438 93.46,75.319 
	93.46,52.438 102.958,52.438 102.958,89.844 93.46,89.844 "/>
<polygon fill="#FFFFFF" points="123.753,60.682 123.753,89.844 114.256,89.844 114.256,60.682 106.515,60.682 106.515,52.438 
	131.659,52.438 131.659,60.682 123.753,60.682 "/>
<path fill="#FFFFFF" d="M154.936,89.844l-2.361-6.506h-13.12l-2.525,6.506h-10.047l14.054-37.406h10.377l13.781,37.406H154.936
	L154.936,89.844z M146.043,64.047l-3.953,11.889h7.904L146.043,64.047L146.043,64.047z"/>
<path fill="#FFFFFF" d="M187.262,89.844l-9.115-14.357v14.357h-9.496V52.438h14.822c3.459,0,6.479,0.674,8.949,3.31
	c2.086,2.188,3.129,5.271,3.129,8.3c0,2.355-0.713,4.99-2.086,6.897c-1.482,2.074-3.459,3.028-5.875,3.589l11.475,15.311H187.262
	L187.262,89.844z M179.959,59.952h-1.812v9.254h1.812c2.965,0,5.82-1.178,5.82-4.654S182.869,59.952,179.959,59.952L179.959,59.952z
	"/>
<polygon fill="#FFFFFF" points="202.518,89.844 202.518,52.438 212.016,52.438 212.016,89.844 202.518,89.844 "/>
<path fill="#FFFFFF" d="M236.115,91.189c-11.254,0-20.258-8.188-20.258-19.909c0-11.72,9.004-19.963,20.258-19.963
	s20.258,8.244,20.258,19.963C256.373,83.002,247.369,91.189,236.115,91.189L236.115,91.189z M236.115,60.737
	c-5.709,0-10.32,4.711-10.32,10.543c0,5.777,4.666,10.487,10.32,10.487s10.322-4.655,10.322-10.487S241.824,60.737,236.115,60.737
	L236.115,60.737z"/>
<path fill="#FFFFFF" d="M23.615,114.91v-3.574l-2.674-4.849h1.25l1.188,2.324c0.312,0.638,0.575,1.149,0.837,1.737h0.025
	c0.225-0.55,0.525-1.1,0.85-1.737l1.212-2.324h1.225l-2.812,4.836v3.587H23.615z"/>
<path fill="#FFFFFF" d="M33.501,111.836c0,2.236-1.562,3.212-3.012,3.212c-1.625,0-2.899-1.2-2.899-3.112
	c0-2.012,1.337-3.199,2.999-3.199C32.327,108.736,33.501,109.999,33.501,111.836z M28.715,111.898c0,1.324,0.75,2.324,1.825,2.324
	c1.05,0,1.837-0.987,1.837-2.35c0-1.024-0.512-2.312-1.812-2.312C29.277,109.562,28.715,110.761,28.715,111.898z"/>
<path fill="#FFFFFF" d="M40.319,113.248c0,0.637,0.012,1.187,0.05,1.662h-0.975l-0.062-0.987h-0.025
	c-0.275,0.487-0.925,1.125-2,1.125c-0.95,0-2.087-0.538-2.087-2.649v-3.537h1.1v3.337c0,1.149,0.362,1.937,1.35,1.937
	c0.737,0,1.25-0.512,1.45-1.012c0.062-0.15,0.1-0.351,0.1-0.562v-3.699h1.1V113.248z"/>
<path fill="#FFFFFF" d="M42.453,110.748c0-0.712-0.012-1.324-0.05-1.887h0.962l0.05,1.2h0.038c0.275-0.812,0.95-1.325,1.687-1.325
	c0.112,0,0.2,0.013,0.3,0.025v1.037c-0.112-0.025-0.225-0.025-0.375-0.025c-0.774,0-1.325,0.575-1.475,1.399
	c-0.025,0.15-0.037,0.338-0.037,0.513v3.225h-1.1V110.748z"/>
<path fill="#FFFFFF" d="M48.578,116.685c0.512-0.037,0.937-0.175,1.2-0.475c0.3-0.338,0.425-0.812,0.425-2.263v-5.086h1.1v5.511
	c0,1.175-0.188,1.938-0.725,2.487c-0.487,0.487-1.287,0.688-1.875,0.688L48.578,116.685z M51.427,107.162
	c0,0.362-0.25,0.675-0.7,0.675c-0.4,0-0.663-0.312-0.663-0.675c0-0.375,0.275-0.688,0.688-0.688S51.427,106.787,51.427,107.162z"/>
<path fill="#FFFFFF" d="M59.014,111.836c0,2.236-1.562,3.212-3.012,3.212c-1.625,0-2.899-1.2-2.899-3.112
	c0-2.012,1.337-3.199,2.999-3.199C57.839,108.736,59.014,109.999,59.014,111.836z M54.228,111.898c0,1.324,0.75,2.324,1.825,2.324
	c1.05,0,1.837-0.987,1.837-2.35c0-1.024-0.512-2.312-1.812-2.312C54.79,109.562,54.228,110.761,54.228,111.898z"/>
<path fill="#FFFFFF" d="M60.84,106.037h1.087v3.799h0.025c0.388-0.675,1.087-1.1,2.062-1.1c1.512,0,2.562,1.25,2.562,3.074
	c0,2.162-1.375,3.237-2.725,3.237c-0.875,0-1.574-0.338-2.037-1.125H61.79l-0.062,0.987H60.79c0.025-0.413,0.05-1.025,0.05-1.562
	V106.037z M61.927,112.485c0,0.138,0.013,0.275,0.05,0.4c0.2,0.762,0.85,1.287,1.65,1.287c1.162,0,1.837-0.938,1.837-2.324
	c0-1.213-0.625-2.25-1.812-2.25c-0.737,0-1.437,0.525-1.662,1.35c-0.038,0.138-0.062,0.287-0.062,0.463V112.485z"/>
<path fill="#FFFFFF" d="M72.702,107.162c0,0.375-0.263,0.675-0.7,0.675c-0.4,0-0.662-0.3-0.662-0.675s0.275-0.688,0.687-0.688
	C72.427,106.475,72.702,106.774,72.702,107.162z M71.477,114.91v-6.049h1.1v6.049H71.477z"/>
<path fill="#FFFFFF" d="M74.318,113.798c0.337,0.2,0.913,0.425,1.462,0.425c0.787,0,1.162-0.388,1.162-0.899
	c0-0.525-0.312-0.8-1.112-1.101c-1.1-0.399-1.612-0.987-1.612-1.712c0-0.975,0.8-1.774,2.087-1.774c0.612,0,1.149,0.162,1.475,0.375
	l-0.263,0.8c-0.237-0.15-0.675-0.362-1.237-0.362c-0.649,0-1,0.375-1,0.824c0,0.5,0.35,0.726,1.137,1.038
	c1.037,0.387,1.587,0.912,1.587,1.812c0,1.075-0.837,1.825-2.25,1.825c-0.662,0-1.274-0.176-1.699-0.426L74.318,113.798z"/>
<path fill="#FFFFFF" d="M88.417,111.836c0,2.236-1.562,3.212-3.012,3.212c-1.625,0-2.899-1.2-2.899-3.112
	c0-2.012,1.337-3.199,2.999-3.199C87.242,108.736,88.417,109.999,88.417,111.836z M83.63,111.898c0,1.324,0.75,2.324,1.825,2.324
	c1.05,0,1.837-0.987,1.837-2.35c0-1.024-0.512-2.312-1.812-2.312C84.193,109.562,83.63,110.761,83.63,111.898z"/>
<path fill="#FFFFFF" d="M95.305,113.248c0,0.637,0.012,1.187,0.05,1.662H94.38l-0.062-0.987h-0.025
	c-0.275,0.487-0.925,1.125-2,1.125c-0.95,0-2.087-0.538-2.087-2.649v-3.537h1.1v3.337c0,1.149,0.362,1.937,1.35,1.937
	c0.737,0,1.25-0.512,1.45-1.012c0.062-0.15,0.1-0.351,0.1-0.562v-3.699h1.1V113.248z"/>
<path fill="#FFFFFF" d="M98.893,107.412v1.449h1.575v0.837h-1.575v3.262c0,0.75,0.212,1.175,0.825,1.175
	c0.3,0,0.475-0.024,0.638-0.074l0.05,0.837c-0.212,0.075-0.55,0.15-0.975,0.15c-0.513,0-0.925-0.176-1.188-0.463
	c-0.3-0.337-0.425-0.875-0.425-1.587v-3.3h-0.937v-0.837h0.937v-1.125L98.893,107.412z"/>
<path fill="#FFFFFF" d="M106.555,107.412v1.449h1.575v0.837h-1.575v3.262c0,0.75,0.212,1.175,0.825,1.175
	c0.3,0,0.475-0.024,0.638-0.074l0.05,0.837c-0.212,0.075-0.55,0.15-0.975,0.15c-0.513,0-0.925-0.176-1.188-0.463
	c-0.3-0.337-0.425-0.875-0.425-1.587v-3.3h-0.937v-0.837h0.937v-1.125L106.555,107.412z"/>
<path fill="#FFFFFF" d="M109.468,106.037h1.1v3.786h0.025c0.175-0.312,0.45-0.6,0.787-0.787c0.325-0.188,0.712-0.3,1.125-0.3
	c0.812,0,2.112,0.5,2.112,2.574v3.6h-1.1v-3.475c0-0.975-0.363-1.787-1.4-1.787c-0.712,0-1.262,0.5-1.475,1.088
	c-0.062,0.162-0.075,0.324-0.075,0.524v3.649h-1.1V106.037z"/>
<path fill="#FFFFFF" d="M117.405,112.086c0.025,1.486,0.962,2.1,2.075,2.1c0.787,0,1.275-0.138,1.675-0.312l0.2,0.787
	c-0.387,0.175-1.062,0.388-2.024,0.388c-1.862,0-2.974-1.237-2.974-3.062c0-1.824,1.075-3.249,2.836-3.249
	c1.987,0,2.5,1.725,2.5,2.837c0,0.225-0.013,0.388-0.038,0.513H117.405z M120.63,111.298c0.012-0.687-0.288-1.774-1.525-1.774
	c-1.125,0-1.6,1.013-1.687,1.774H120.63z"/>
<path fill="#FFFFFF" d="M123.443,110.748c0-0.712-0.012-1.324-0.05-1.887h0.962l0.05,1.2h0.038c0.275-0.812,0.95-1.325,1.687-1.325
	c0.112,0,0.2,0.013,0.3,0.025v1.037c-0.112-0.025-0.225-0.025-0.375-0.025c-0.774,0-1.325,0.575-1.475,1.399
	c-0.025,0.15-0.037,0.338-0.037,0.513v3.225h-1.1V110.748z"/>
<path fill="#FFFFFF" d="M128.53,112.086c0.025,1.486,0.962,2.1,2.075,2.1c0.787,0,1.275-0.138,1.675-0.312l0.2,0.787
	c-0.387,0.175-1.062,0.388-2.024,0.388c-1.862,0-2.974-1.237-2.974-3.062c0-1.824,1.075-3.249,2.836-3.249
	c1.987,0,2.5,1.725,2.5,2.837c0,0.225-0.013,0.388-0.038,0.513H128.53z M131.755,111.298c0.012-0.687-0.288-1.774-1.525-1.774
	c-1.125,0-1.6,1.013-1.687,1.774H131.755z"/>
<path fill="#FFFFFF" d="M134.306,114.26c0-0.449,0.312-0.787,0.75-0.787c0.438,0,0.738,0.325,0.738,0.787
	c0,0.45-0.3,0.788-0.763,0.788C134.605,115.048,134.306,114.71,134.306,114.26z"/>
<path fill="#FFFFFF" d="M141.992,114.91l-2.137-8.423h1.15l1,4.261c0.25,1.05,0.475,2.1,0.625,2.912h0.023
	c0.139-0.837,0.4-1.837,0.688-2.924l1.125-4.249h1.139l1.023,4.273c0.238,1,0.463,2,0.588,2.887h0.025
	c0.174-0.925,0.412-1.861,0.674-2.911l1.113-4.249h1.111l-2.387,8.423h-1.137l-1.062-4.387c-0.262-1.074-0.438-1.899-0.551-2.749
	h-0.023c-0.139,0.837-0.338,1.662-0.65,2.749l-1.199,4.387H141.992z"/>
<path fill="#FFFFFF" d="M151.627,112.086c0.025,1.486,0.963,2.1,2.076,2.1c0.787,0,1.273-0.138,1.674-0.312l0.199,0.787
	c-0.387,0.175-1.062,0.388-2.023,0.388c-1.863,0-2.975-1.237-2.975-3.062c0-1.824,1.074-3.249,2.836-3.249
	c1.988,0,2.5,1.725,2.5,2.837c0,0.225-0.012,0.388-0.037,0.513H151.627z M154.852,111.298c0.014-0.687-0.287-1.774-1.523-1.774
	c-1.125,0-1.6,1.013-1.688,1.774H154.852z"/>
<path fill="#FFFFFF" d="M159.078,106.262c-0.287,1.05-0.826,2.399-1.162,2.975l-0.701,0.075c0.264-0.737,0.6-2.024,0.738-2.925
	L159.078,106.262z"/>
<path fill="#FFFFFF" d="M160.715,106.037h1.1v8.873h-1.1V106.037z"/>
<path fill="#FFFFFF" d="M164.09,106.037h1.1v8.873h-1.1V106.037z"/>
<path fill="#FFFFFF" d="M170.539,106.037h1.1v3.786h0.025c0.176-0.312,0.451-0.6,0.787-0.787c0.326-0.188,0.713-0.3,1.125-0.3
	c0.812,0,2.111,0.5,2.111,2.574v3.6h-1.1v-3.475c0-0.975-0.361-1.787-1.398-1.787c-0.713,0-1.262,0.5-1.475,1.088
	c-0.062,0.162-0.076,0.324-0.076,0.524v3.649h-1.1V106.037z"/>
<path fill="#FFFFFF" d="M178.514,112.086c0.025,1.486,0.963,2.1,2.076,2.1c0.787,0,1.273-0.138,1.674-0.312l0.199,0.787
	c-0.387,0.175-1.062,0.388-2.023,0.388c-1.863,0-2.975-1.237-2.975-3.062c0-1.824,1.074-3.249,2.836-3.249
	c1.988,0,2.5,1.725,2.5,2.837c0,0.225-0.012,0.388-0.037,0.513H178.514z M181.738,111.298c0.014-0.687-0.287-1.774-1.523-1.774
	c-1.125,0-1.6,1.013-1.688,1.774H181.738z"/>
<path fill="#FFFFFF" d="M184.59,106.037h1.1v8.873h-1.1V106.037z"/>
<path fill="#FFFFFF" d="M187.965,110.836c0-0.774-0.025-1.399-0.051-1.975h0.975l0.062,1.037h0.025
	c0.438-0.737,1.162-1.162,2.15-1.162c1.475,0,2.574,1.237,2.574,3.062c0,2.175-1.338,3.25-2.762,3.25c-0.801,0-1.5-0.351-1.863-0.95
	h-0.023v3.287h-1.088V110.836z M189.053,112.448c0,0.162,0.012,0.312,0.049,0.449c0.199,0.763,0.863,1.288,1.65,1.288
	c1.162,0,1.836-0.95,1.836-2.337c0-1.2-0.637-2.237-1.799-2.237c-0.75,0-1.463,0.524-1.662,1.35c-0.037,0.138-0.074,0.3-0.074,0.438
	V112.448z"/>
<path fill="#FFFFFF" d="M198.977,108.861l1.312,3.574c0.15,0.399,0.299,0.875,0.4,1.237h0.023c0.113-0.362,0.238-0.825,0.389-1.263
	l1.199-3.549h1.162l-1.648,4.312c-0.789,2.074-1.326,3.124-2.076,3.786c-0.549,0.463-1.074,0.65-1.35,0.7l-0.273-0.912
	c0.273-0.088,0.637-0.263,0.961-0.537c0.301-0.238,0.662-0.663,0.926-1.225c0.049-0.113,0.088-0.2,0.088-0.263
	s-0.025-0.15-0.088-0.288l-2.225-5.573H198.977z"/>
<path fill="#FFFFFF" d="M209.629,111.836c0,2.236-1.561,3.212-3.012,3.212c-1.623,0-2.898-1.2-2.898-3.112
	c0-2.012,1.338-3.199,3-3.199C208.455,108.736,209.629,109.999,209.629,111.836z M204.844,111.898c0,1.324,0.75,2.324,1.824,2.324
	c1.049,0,1.836-0.987,1.836-2.35c0-1.024-0.512-2.312-1.811-2.312C205.406,109.562,204.844,110.761,204.844,111.898z"/>
<path fill="#FFFFFF" d="M216.443,113.248c0,0.637,0.014,1.187,0.051,1.662h-0.975l-0.062-0.987h-0.025
	c-0.275,0.487-0.926,1.125-2,1.125c-0.949,0-2.086-0.538-2.086-2.649v-3.537h1.1v3.337c0,1.149,0.361,1.937,1.35,1.937
	c0.736,0,1.25-0.512,1.449-1.012c0.062-0.15,0.1-0.351,0.1-0.562v-3.699h1.1V113.248z"/>
<path fill="#FFFFFF" d="M221.906,114.91v-5.212h-0.836v-0.837h0.836v-0.287c0-0.85,0.201-1.625,0.701-2.112
	c0.412-0.399,0.961-0.562,1.475-0.562c0.4,0,0.725,0.088,0.938,0.175l-0.15,0.851c-0.162-0.075-0.375-0.138-0.699-0.138
	c-0.938,0-1.176,0.812-1.176,1.749v0.325h1.463v0.837h-1.463v5.212H221.906z"/>
<path fill="#FFFFFF" d="M227.357,107.162c0,0.375-0.262,0.675-0.699,0.675c-0.4,0-0.664-0.3-0.664-0.675s0.275-0.688,0.688-0.688
	C227.082,106.475,227.357,106.774,227.357,107.162z M226.133,114.91v-6.049h1.1v6.049H226.133z"/>
<path fill="#FFFFFF" d="M229.357,110.498c0-0.637-0.014-1.137-0.051-1.637h0.975l0.062,1h0.025c0.301-0.562,1-1.125,2-1.125
	c0.838,0,2.137,0.5,2.137,2.574v3.6h-1.1v-3.487c0-0.975-0.363-1.787-1.4-1.787c-0.711,0-1.273,0.513-1.475,1.125
	c-0.049,0.138-0.074,0.325-0.074,0.513v3.637h-1.1V110.498z"/>
<path fill="#FFFFFF" d="M241.859,106.037v7.311c0,0.537,0.025,1.149,0.051,1.562h-0.975l-0.051-1.05h-0.037
	c-0.326,0.675-1.051,1.188-2.037,1.188c-1.463,0-2.6-1.237-2.6-3.075c-0.014-2.012,1.25-3.236,2.711-3.236
	c0.938,0,1.551,0.438,1.826,0.912h0.023v-3.611H241.859z M240.771,111.323c0-0.138-0.012-0.325-0.049-0.462
	c-0.162-0.688-0.764-1.263-1.588-1.263c-1.137,0-1.812,1-1.812,2.324c0,1.225,0.613,2.237,1.787,2.237
	c0.738,0,1.412-0.5,1.613-1.312c0.037-0.149,0.049-0.3,0.049-0.475V111.323z"/>
<path fill="#FFFFFF" d="M248.422,107.162c0,0.375-0.262,0.675-0.699,0.675c-0.4,0-0.662-0.3-0.662-0.675s0.275-0.688,0.688-0.688
	C248.148,106.475,248.422,106.774,248.422,107.162z M247.197,114.91v-6.049h1.1v6.049H247.197z"/>
<path fill="#FFFFFF" d="M251.873,107.412v1.449h1.574v0.837h-1.574v3.262c0,0.75,0.211,1.175,0.824,1.175
	c0.299,0,0.475-0.024,0.637-0.074l0.051,0.837c-0.213,0.075-0.551,0.15-0.975,0.15c-0.514,0-0.926-0.176-1.188-0.463
	c-0.301-0.337-0.426-0.875-0.426-1.587v-3.3h-0.938v-0.837h0.938v-1.125L251.873,107.412z"/>
<path fill="#FFFFFF" d="M254.848,114.26c0-0.449,0.312-0.787,0.75-0.787s0.736,0.325,0.736,0.787c0,0.45-0.299,0.788-0.762,0.788
	C255.148,115.048,254.848,114.71,254.848,114.26z"/>
</svg>
