<?xml version="1.0" encoding="utf-8"?>
<!-- Generator: Adobe Illustrator 15.0.0, SVG Export Plug-In  -->
<!DOCTYPE svg PUBLIC "-//W3C//DTD SVG 1.1//EN" "http://www.w3.org/Graphics/SVG/1.1/DTD/svg11.dtd" [
	<!ENTITY ns_flows "http://ns.adobe.com/Flows/1.0/">
]>
<svg version="1.1"
	 xmlns="http://www.w3.org/2000/svg" xmlns:xlink="http://www.w3.org/1999/xlink" xmlns:a="http://ns.adobe.com/AdobeSVGViewerExtensions/3.0/"
	 x="0px" y="0px" width="80px" height="77px" viewBox="0 0 80 77" overflow="visible" enable-background="new 0 0 80 77"
	 xml:space="preserve">
<defs>
</defs>
<path fill-rule="evenodd" clip-rule="evenodd" fill="#FFFFFF" d="M15.281,0.5h5.643v11.282h-5.643V0.5z M57.59,0.5h5.641v11.282
	H57.59V0.5z M63.23,42.808H57.59v5.641h5.641V42.808z M66.051,51.27H54.77V39.987h11.281V51.27z M63.23,28.705H57.59v5.641h5.641
	V28.705z M66.051,37.166H54.77V25.885h11.281V37.166z M49.129,56.91h-5.643v5.641h5.643V56.91z M51.949,65.371H40.666V54.09h11.283
	V65.371z M49.129,42.808h-5.643v5.641h5.643V42.808z M51.949,51.27H40.666V39.987h11.283V51.27z M49.129,28.705h-5.643v5.641h5.643
	V28.705z M51.949,37.166H40.666V25.885h11.283V37.166z M35.025,56.91h-5.641v5.641h5.641V56.91z M37.846,65.371H26.564V54.09h11.281
	V65.371z M35.025,42.808h-5.641v5.641h5.641V42.808z M37.846,51.27H26.564V39.987h11.281V51.27z M35.025,28.705h-5.641v5.641h5.641
	V28.705z M37.846,37.166H26.564V25.885h11.281V37.166z M20.924,56.91h-5.643v5.641h5.643V56.91z M23.744,65.371H12.461V54.09h11.283
	V65.371z M20.924,42.808h-5.643v5.641h5.643V42.808z M23.744,51.27H12.461V39.987h11.283V51.27z M20.924,28.705h-5.643v5.641h5.643
	V28.705z M23.744,37.166H12.461V25.885h11.283V37.166z M68.871,23.064H9.641v45.128h59.23V23.064z M4,73.833V6.141h8.461v8.462
	h11.283V6.141H54.77v8.462h11.281V6.141h8.461v67.692H4z"/>
<rect id="_x3C_Slice_x3E__3_" fill-rule="evenodd" clip-rule="evenodd" fill="none" width="80" height="77"/>
</svg>
