<?xml version="1.0" encoding="utf-8"?>
<!-- Generator: Adobe Illustrator 14.0.0, SVG Export Plug-In  -->
<!DOCTYPE svg PUBLIC "-//W3C//DTD SVG 1.1//EN" "http://www.w3.org/Graphics/SVG/1.1/DTD/svg11.dtd" [
	<!ENTITY ns_flows "http://ns.adobe.com/Flows/1.0/">
]>
<svg version="1.1"
	 xmlns="http://www.w3.org/2000/svg" xmlns:xlink="http://www.w3.org/1999/xlink" xmlns:a="http://ns.adobe.com/AdobeSVGViewerExtensions/3.0/"
	 x="0px" y="0px" width="739px" height="168px" viewBox="0 0 739 168" enable-background="new 0 0 739 168" xml:space="preserve">
<defs>
</defs>
<rect fill="#FFB103" width="738.5" height="167.571"/>
<rect x="25.884" y="65.676" opacity="0.5" fill="#FFFFFF" enable-background="new    " width="26.778" height="26.779"/>
<rect x="56.01" y="52.285" fill="#FFFFFF" width="26.78" height="26.779"/>
<rect x="86.136" y="52.285" fill="#FFFFFF" width="26.778" height="26.779"/>
<rect x="86.136" y="22.159" fill="#FFFFFF" width="26.778" height="26.779"/>
<rect x="25.884" y="95.804" fill="#FFFFFF" width="26.778" height="26.778"/>
<rect x="56.01" y="82.413" fill="#FFFFFF" width="26.78" height="26.779"/>
<rect x="116.266" y="82.413" fill="#FFFFFF" width="26.778" height="26.779"/>
<rect x="116.266" y="111.961" fill="#FFFFFF" width="26.778" height="26.782"/>
<rect x="86.136" y="111.961" opacity="0.5" fill="#FFFFFF" enable-background="new    " width="26.778" height="26.782"/>
<path fill="#FFFFFF" d="M194.511,58.637c-7.46,0-13.335,2.387-17.622,7.159c-4.291,4.784-6.433,11.32-6.433,19.624
	c0,8.493,2.021,15.093,6.062,19.788c4.045,4.694,9.827,7.04,17.342,7.04c4.993,0,9.58-0.646,13.758-1.919v3.669
	c-3.936,1.383-8.842,2.073-14.73,2.073c-8.359,0-14.94-2.698-19.748-8.102c-4.803-5.399-7.203-12.942-7.203-22.631
	c0-6.048,1.149-11.384,3.44-16.001c2.296-4.615,5.592-8.177,9.896-10.684c4.298-2.507,9.297-3.763,15.001-3.763
	c5.809,0,10.999,1.086,15.591,3.253l-1.671,3.745C203.847,59.716,199.286,58.637,194.511,58.637z"/>
<path fill="#FFFFFF" d="M252.299,93.071c0,7.222-1.747,12.858-5.248,16.916c-3.497,4.058-8.33,6.087-14.488,6.087
	c-3.882,0-7.303-0.934-10.259-2.811c-2.961-1.867-5.226-4.554-6.799-8.055c-1.576-3.503-2.362-7.545-2.362-12.137
	c0-7.213,1.75-12.842,5.252-16.868c3.502-4.032,8.306-6.045,14.409-6.045c6.081,0,10.849,2.041,14.31,6.127
	C250.57,80.368,252.299,85.96,252.299,93.071z M217.372,93.071c0,6.08,1.338,10.829,4.011,14.229
	c2.673,3.404,6.451,5.112,11.338,5.112c4.884,0,8.663-1.708,11.337-5.112c2.668-3.402,4.006-8.149,4.006-14.229
	c0-6.109-1.348-10.836-4.045-14.207c-2.704-3.366-6.496-5.05-11.379-5.05c-4.886,0-8.648,1.685-11.299,5.037
	C218.699,82.202,217.372,86.935,217.372,93.071z"/>
<path fill="#FFFFFF" d="M296.739,115.26l-5.823-21.004c-0.704-2.229-1.982-7.4-3.827-15.507h-0.367
	c-1.573,7.325-2.82,12.521-3.745,15.587l-5.98,20.922h-10.584l-12.619-45.02h9.765L269.3,92.42
	c1.302,5.483,2.224,10.178,2.767,14.084h0.246c0.273-1.975,0.686-4.255,1.239-6.817c0.558-2.567,1.042-4.489,1.449-5.759
	l6.839-23.69h10.504l6.636,23.69c0.407,1.329,0.917,3.358,1.526,6.103c0.612,2.741,0.973,4.868,1.082,6.394h0.325
	c0.409-3.342,1.355-8.009,2.849-14.005l5.823-22.182h9.611l-12.706,45.02h-10.751V115.26z"/>
<path fill="#FFFFFF" d="M363.685,92.664c0,7.358-1.889,13.092-5.656,17.218c-3.771,4.131-9.025,6.193-15.753,6.193
	c-4.214,0-7.925-0.952-11.152-2.848c-3.231-1.905-5.712-4.625-7.454-8.187c-1.735-3.551-2.605-7.676-2.605-12.372
	c0-7.301,1.876-13.003,5.624-17.103c3.741-4.091,9.025-6.144,15.834-6.144c6.512,0,11.664,2.102,15.465,6.293
	C361.789,79.909,363.685,85.548,363.685,92.664z M330.922,92.664c0,10.391,3.831,15.594,11.518,15.594
	c7.593,0,11.4-5.203,11.4-15.594c0-10.283-3.834-15.428-11.481-15.428c-4.019,0-6.929,1.335-8.735,3.993
	C331.813,83.887,330.922,87.7,330.922,92.664z"/>
<path fill="#FFFFFF" d="M393.34,69.419c1.929,0,3.515,0.14,4.768,0.41l-0.936,8.919c-1.359-0.33-2.772-0.487-4.232-0.487
	c-3.834,0-6.932,1.245-9.305,3.742c-2.374,2.495-3.567,5.736-3.567,9.729v23.527h-9.56V70.24h7.491l1.254,7.931h0.496
	c1.484-2.677,3.436-4.811,5.837-6.384C387.996,70.214,390.574,69.419,393.34,69.419z"/>
<path fill="#FFFFFF" d="M411.523,91.486l5.417-6.756l13.585-14.49h11.036l-18.118,19.329l19.255,25.69h-11.231l-14.449-19.748
	l-5.256,4.323v15.428h-9.48V51.923h9.48v30.899l-0.488,8.667h0.25V91.486z"/>
<path fill="#FFFFFF" d="M513.624,116.37h-4.194l-35.252-52.843h-0.33c0.33,6.307,0.489,11.053,0.489,14.254v38.588h-3.989V56.857
	h4.154l35.208,52.758h0.243c-0.243-4.886-0.364-9.532-0.364-13.92V56.857h4.035V116.37z"/>
<path fill="#FFFFFF" d="M524.717,59.829c0-2.605,0.852-3.906,2.562-3.906c0.841,0,1.497,0.341,1.976,1.016
	c0.47,0.683,0.708,1.647,0.708,2.89c0,1.222-0.238,2.179-0.708,2.893c-0.479,0.702-1.135,1.06-1.976,1.06
	C525.571,63.782,524.717,62.462,524.717,59.829z M529.312,116.37h-4.027V72.121h4.027V116.37z"/>
<path fill="#FFFFFF" d="M566.833,116.37l-1.018-7.002h-0.322c-2.231,2.85-4.516,4.859-6.863,6.047
	c-2.347,1.18-5.119,1.77-8.323,1.77c-4.344,0-7.723-1.113-10.135-3.337c-2.418-2.229-3.625-5.303-3.625-9.24
	c0-4.32,1.798-7.667,5.395-10.059c3.595-2.388,8.8-3.649,15.615-3.783l8.425-0.243v-2.936c0-4.203-0.856-7.385-2.562-9.521
	c-1.711-2.148-4.469-3.225-8.264-3.225c-4.101,0-8.347,1.143-12.741,3.421l-1.507-3.501c4.856-2.275,9.659-3.422,14.409-3.422
	c4.855,0,8.487,1.266,10.891,3.788c2.402,2.527,3.604,6.457,3.604,11.804v29.432h-2.979V116.37z M550.552,113.52
	c4.72,0,8.444-1.352,11.173-4.045c2.732-2.706,4.091-6.45,4.091-11.257V93.86l-7.734,0.335c-6.216,0.29-10.642,1.257-13.293,2.904
	c-2.646,1.643-3.968,4.203-3.968,7.679c0,2.764,0.849,4.922,2.544,6.448C545.063,112.758,547.46,113.52,550.552,113.52z"/>
<path fill="#FFFFFF" d="M614.481,72.121v2.812l-9.157,0.562c2.445,3.044,3.667,6.387,3.667,10.014c0,4.27-1.423,7.719-4.25,10.363
	c-2.847,2.645-6.647,3.969-11.424,3.969c-2.008,0-3.423-0.077-4.236-0.243c-1.601,0.843-2.823,1.83-3.659,2.969
	c-0.846,1.14-1.264,2.347-1.264,3.621c0,1.414,0.536,2.443,1.606,3.099c1.07,0.646,2.872,0.975,5.396,0.975h7.733
	c4.808,0,8.479,0.964,11.033,2.908c2.547,1.945,3.827,4.813,3.827,8.609c0,4.667-1.896,8.266-5.684,10.809
	c-3.778,2.541-9.172,3.813-16.177,3.813c-5.561,0-9.865-1.071-12.923-3.22c-3.055-2.145-4.582-5.131-4.582-8.955
	c0-3.037,0.945-5.564,2.832-7.571c1.887-2.011,4.443-3.383,7.672-4.112c-1.33-0.568-2.395-1.371-3.198-2.423
	c-0.797-1.048-1.197-2.247-1.197-3.604c0-2.951,1.887-5.559,5.659-7.821c-2.58-1.054-4.59-2.718-6.025-4.98
	c-1.44-2.266-2.16-4.864-2.16-7.799c0-4.421,1.407-7.966,4.217-10.639c2.808-2.673,6.603-4.012,11.376-4.012
	c2.904,0,5.153,0.286,6.754,0.853h14.164V72.121z M578.661,123.858c0,6.08,4.517,9.123,13.552,9.123
	c11.615,0,17.424-3.707,17.424-11.112c0-2.659-0.907-4.591-2.733-5.784c-1.815-1.193-4.757-1.788-8.827-1.788h-7.245
	C582.715,114.296,578.661,117.484,578.661,123.858z M582.037,85.921c0,3.422,1.041,6.074,3.114,7.962
	c2.077,1.885,4.853,2.827,8.328,2.827c3.688,0,6.521-0.936,8.486-2.806c1.962-1.875,2.948-4.589,2.948-8.142
	c0-3.772-1.012-6.604-3.029-8.486c-2.026-1.891-4.854-2.831-8.492-2.831c-3.527,0-6.303,1.01-8.325,3.037
	C583.049,79.498,582.037,82.312,582.037,85.921z"/>
<path fill="#FFFFFF" d="M646.254,116.37l-1.016-7.002h-0.325c-2.229,2.85-4.518,4.859-6.865,6.047
	c-2.344,1.18-5.118,1.77-8.321,1.77c-4.344,0-7.723-1.113-10.133-3.337c-2.42-2.229-3.628-5.303-3.628-9.24
	c0-4.32,1.797-7.667,5.392-10.059c3.596-2.388,8.801-3.649,15.617-3.783l8.428-0.243v-2.936c0-4.203-0.852-7.385-2.564-9.521
	c-1.708-2.148-4.471-3.225-8.268-3.225c-4.099,0-8.343,1.143-12.737,3.421l-1.506-3.501c4.854-2.275,9.661-3.422,14.413-3.422
	c4.855,0,8.485,1.266,10.891,3.788c2.402,2.527,3.596,6.457,3.596,11.804v29.432h-2.973V116.37z M629.975,113.52
	c4.724,0,8.439-1.352,11.173-4.045c2.728-2.706,4.091-6.45,4.091-11.257V93.86l-7.732,0.335c-6.221,0.29-10.644,1.257-13.295,2.904
	c-2.647,1.643-3.966,4.203-3.966,7.679c0,2.764,0.851,4.922,2.544,6.448C624.484,112.758,626.877,113.52,629.975,113.52z"/>
<path fill="#FFFFFF" d="M676.81,71.266c1.868,0,3.88,0.192,6.029,0.569l-0.777,3.866c-1.844-0.457-3.758-0.688-5.736-0.688
	c-3.778,0-6.868,1.596-9.281,4.807c-2.422,3.202-3.621,7.239-3.621,12.121v24.429h-4.034V72.121h3.418l0.41,7.985h0.287
	c1.815-3.26,3.749-5.544,5.813-6.865C671.381,71.928,673.88,71.266,676.81,71.266z"/>
<path fill="#FFFFFF" d="M714.528,116.37l-1.015-7.002h-0.325c-2.229,2.85-4.516,4.859-6.863,6.047
	c-2.346,1.18-5.118,1.77-8.323,1.77c-4.341,0-7.725-1.113-10.132-3.337c-2.421-2.229-3.629-5.303-3.629-9.24
	c0-4.32,1.797-7.667,5.392-10.059c3.592-2.388,8.801-3.649,15.617-3.783l8.423-0.243v-2.936c0-4.203-0.848-7.385-2.56-9.521
	c-1.711-2.148-4.463-3.225-8.269-3.225c-4.096,0-8.342,1.143-12.736,3.421l-1.506-3.501c4.853-2.275,9.66-3.422,14.411-3.422
	c4.858,0,8.486,1.266,10.887,3.788c2.406,2.527,3.6,6.457,3.6,11.804v29.432h-2.972V116.37z M698.248,113.52
	c4.724,0,8.441-1.352,11.173-4.045c2.729-2.706,4.093-6.45,4.093-11.257V93.86l-7.732,0.335c-6.223,0.29-10.644,1.257-13.295,2.904
	c-2.647,1.643-3.966,4.203-3.966,7.679c0,2.764,0.849,4.922,2.547,6.448C692.758,112.758,695.153,113.52,698.248,113.52z"/>
</svg>
