<?xml version="1.0" encoding="utf-8"?>
<!-- Generator: Adobe Illustrator 14.0.0, SVG Export Plug-In  -->
<!DOCTYPE svg PUBLIC "-//W3C//DTD SVG 1.1//EN" "http://www.w3.org/Graphics/SVG/1.1/DTD/svg11.dtd" [
	<!ENTITY ns_flows "http://ns.adobe.com/Flows/1.0/">
]>
<svg version="1.1"
	 xmlns="http://www.w3.org/2000/svg" xmlns:xlink="http://www.w3.org/1999/xlink" xmlns:a="http://ns.adobe.com/AdobeSVGViewerExtensions/3.0/"
	 x="0px" y="0px" width="603px" height="576px" viewBox="-7.84 -4.902 603 576" enable-background="new -7.84 -4.902 603 576"
	 xml:space="preserve">
<defs>
</defs>
<g>
	<g>
		<path fill="#FFFFFF" d="M582.405,210.619h-28.868C521.8,98.755,417.463,16.684,293.632,16.684
			c-123.832,0-228.168,82.071-259.904,193.935H5.168v144.716h29.04c32.303,111,136.216,192.243,259.424,192.243
			c123.207,0,227.12-81.243,259.424-192.243h29.349V210.619z"/>
	</g>
</g>
<path fill="#282561" d="M71.903,214.185c29.342-94.707,117.755-163.695,221.975-163.695c104.232,0,192.633,68.988,221.979,163.695
	h9.98c-29.66-100.051-122.41-173.254-231.959-173.254c-109.544,0-202.294,73.204-231.946,173.254H71.903z"/>
<path fill="#282561" d="M515.896,351.31c-29.297,94.781-117.742,163.83-222.018,163.83c-104.272,0-192.712-69.049-222.014-163.83
	h-9.978c29.614,100.125,122.401,173.392,231.992,173.392c109.592,0,202.385-73.267,231.994-173.392H515.896z"/>
<path fill="#282561" d="M385.423,214.565c-20.953-28.094-54.436-46.286-92.17-46.286c-37.736,0-71.221,18.192-92.172,46.286H385.423
	z"/>
<path fill="#282561" d="M200.983,351.69c20.941,28.163,54.472,46.417,92.27,46.417c37.792,0,71.321-18.254,92.272-46.417H200.983z"
	/>
<path fill="#282561" d="M583.714,205.518h-25.609l5.676-8.115l-15.953-5.792l8.623-14.619l-16.354-4.545l7.477-15.24l-16.656-3.267
	l6.275-15.771l-16.854-1.982l5.053-16.203l-16.957-0.702l3.803-16.531l-16.957,0.604l2.531-16.791l-16.869,1.892l1.242-16.926
	l-16.676,3.171l-0.039-16.974l-16.383,4.427l-1.342-16.913l-16,5.662l-2.629-16.769l-15.518,6.886l-3.908-16.516l-14.941,8.05
	l-5.168-16.168l-14.287,9.184l-6.396-15.722l-13.527,10.256l-7.598-15.18l-12.697,11.264l-8.734-14.553l-11.799,12.21L304.718,0
	L293.88,13.06L283.042,0l-9.823,13.844l-11.793-12.21l-8.741,14.553L239.989,4.928l-7.594,15.175L218.872,9.847l-6.402,15.722
	l-14.275-9.184l-5.168,16.164L178.085,24.5l-3.916,16.516l-15.518-6.88L156.021,50.9l-15.994-5.668l-1.338,16.922L122.3,57.723
	l-0.04,16.974l-16.677-3.171l1.248,16.927l-16.869-1.892l2.535,16.78l-16.961-0.6l3.801,16.537l-16.966,0.692l5.055,16.203
	l-16.856,1.987l6.285,15.771l-16.66,3.275l7.473,15.24l-16.354,4.542l8.619,14.623l-15.951,5.789l5.676,8.118H4.056
	c-2.238,0-4.056,2.099-4.056,4.683v145.101c0,2.578,1.817,4.681,4.056,4.681h25.688l-5.765,8.252l15.951,5.788l-8.619,14.623
	l16.354,4.542l-7.473,15.239l16.65,3.275l-6.279,15.762l16.861,1.987l-5.055,16.203l16.957,0.696l-3.801,16.54l16.965-0.604
	l-2.54,16.782l16.874-1.887l-1.252,16.921l16.676-3.166l0.044,16.975l16.384-4.432l1.34,16.917l15.998-5.666l2.631,16.771
	l15.513-6.884l3.905,16.516l14.951-8.046l5.168,16.165l14.276-9.18l6.408,15.718l13.528-10.258l7.593,15.185l12.696-11.271
	l8.74,14.554l11.797-12.205l9.819,13.843l10.839-13.06l10.838,13.06l9.822-13.843l11.803,12.205l8.74-14.554l12.689,11.265
	l7.598-15.177l13.523,10.258l6.4-15.718l14.277,9.18l5.178-16.164l14.938,8.045l3.91-16.51l15.512,6.879l2.627-16.764l16.002,5.662
	l1.342-16.918l16.387,4.432l0.045-16.974l16.666,3.172l-1.244-16.931l16.865,1.896l-2.525-16.782l16.957,0.604l-3.803-16.549
	l16.957-0.685l-5.055-16.203l16.861-1.987l-6.279-15.767l16.658-3.273l-7.471-15.249l16.352-4.542l-8.621-14.613l15.951-5.794
	l-5.771-8.256h25.707c2.234,0,4.047-2.103,4.047-4.681V210.203C587.761,207.615,585.949,205.518,583.714,205.518z M293.878,23.815
	c116.117,0,214.355,76.418,247.238,181.701h-8.236C500.158,104.039,404.82,30.414,292.599,30.414
	c-112.22,0-207.557,73.625-240.274,175.103h-5.681C79.528,100.234,177.765,23.815,293.878,23.815z M293.878,541.819
	c-116.166,0-214.452-76.48-247.292-181.839h5.684C84.959,461.529,180.323,535.22,292.599,535.22
	c112.272,0,207.647-73.69,240.325-175.239h8.25C508.337,465.338,410.048,541.819,293.878,541.819z M579.503,347.158
	c0,2.294-1.762,4.151-3.938,4.151h-45.984C499.826,454.11,404.855,529.482,292.599,529.482
	c-112.25,0-207.225-75.372-236.981-178.173H12.201c-2.173,0-3.942-1.857-3.942-4.151V218.335c0-2.291,1.77-4.15,3.942-4.15h43.456
	C85.458,111.462,180.394,36.147,292.599,36.147c112.204,0,207.139,75.314,236.946,178.037h46.021c2.176,0,3.938,1.859,3.938,4.15
	V347.158z"/>
<path fill="#282561" d="M353.646,172.56c0.232-0.284,0.559-0.443,0.996-0.277c-0.035,0.254-0.115,0.465-0.176,0.696
	c17.938,9.924,33.188,24.118,44.383,41.206h90.939c0.66-0.648,1.619-0.881,2.352-0.386c0.025,0.158-0.021,0.246-0.016,0.386h13.734
	c-5.049-15.6-11.807-30.423-19.986-44.302c-0.566,2.04-2.908,2.305-4.109,3.699c-1.854-2.105,0.693-4.41,3.742-4.331
	c-4.078-6.871-8.514-13.497-13.289-19.863c-0.988-0.02-1.807-0.198-2.127-0.882c-0.088-0.665,0.211-0.958,0.588-1.165
	c-27.811-36.242-66.502-63.67-111.195-77.431c-0.725,0.535-1.734,0.718-2.242,0.342c-0.117-0.397-0.146-0.757-0.123-1.086
	c-20.049-5.925-41.268-9.117-63.236-9.117c-57.774,0-110.381,22.023-149.958,58.1c0.057,0.021,0.086,0.075,0.158,0.092
	c-0.242,0.85-0.895,1.174-1.529,1.139c-27.628,25.602-48.771,58.114-60.64,94.805h96.744c-0.079-1.366,0.616-1.961,2.176-1.688
	c0.136,0.776,0.035,1.314-0.229,1.688h3.554c-0.828-0.271-1.483-0.702-1.159-2.119c0.744,0.394,1.471,0.797,1.295,2.119h4.625
	c22.4-34.194,61.039-56.795,104.963-56.795C315.531,157.39,335.88,162.899,353.646,172.56z"/>
<path fill="#282561" d="M481.326,401.882c0.035-1.008,0.779-1.263,1.473-1.056c8.154-13.032,15.025-26.954,20.377-41.618
	c-0.529-0.738-0.199-2.763,0.205-3.166c-0.807,0.163-3.773-1.114-1.734-2.588c1.014,1.152,1.9,1.631,2.752,2.221
	c0.5-1.452,1.027-2.898,1.506-4.365H398.939c-0.129,0.194-0.27,0.373-0.396,0.564c0.066,0.24,0.162,0.447,0.203,0.716
	c-0.232,0.013-0.41-0.079-0.592-0.154c-22.506,33.634-60.777,55.812-104.275,55.812c-26.165,0-50.419-8.065-70.518-21.781
	c-0.655,0.641-1.603,0.989-2.754,1.143c0.269-0.389,0.525-0.77,0-0.866c0.504-0.651,1.084-0.728,1.879-0.872
	c-13.312-9.25-24.782-20.972-33.658-34.562H81.858c7.506,23.237,18.742,44.784,32.976,63.986c0.065-0.153,0.123-0.303,0.276-0.446
	c1.168,0.415,1.615,1.559,2.598,2.159c-0.114,0.568-0.604,0.687-1.152,0.578c40.688,53.457,104.959,87.992,177.323,87.992
	c48.52,0,93.389-15.542,129.965-41.876c-0.01,0-0.01,0.006-0.018,0.006c0.043-1.835,1.16-2.584,2.592-3.03
	c0.031,0.479-0.002,0.895-0.088,1.253c21.938-16.247,40.75-36.453,55.461-59.533C481.589,402.263,481.423,402.087,481.326,401.882z"
	/>
<path fill="#FFFFFF" d="M164.194,134.604l3.969,3.653l-2.562,4.142l28.188,25.957l-6.043,6.562l-34.311-7.09l-0.102,0.156
	l17.455,16.072l3.916-2.896l3.945,3.634l-12.521,13.599l-3.946-3.634l2.541-4.118l-23.565-21.7l-3.896,2.873l-3.969-3.655
	l3.219-3.495l6.063-6.585l34.31,7.09l0.102-0.155l-17.432-16.053l-3.916,2.896l-3.969-3.655l9.282-10.08L164.194,134.604z"/>
<path fill="#FFFFFF" d="M180.199,130.126l-2.994-4.487l15.377-10.26l2.995,4.488l-3.469,3.419l17.779,26.648l4.488-1.89l2.979,4.462
	l-15.377,10.26L199,158.304l3.468-3.42l-17.779-26.647L180.199,130.126z"/>
<path fill="#FFFFFF" d="M220.908,143.118l2.839-1.521l-0.505-41.114l8.614-3.133l25.941,31.86l3.153-0.657l1.834,5.042
	l-14.289,5.197l-1.834-5.042l2.721-1.577l-3.94-5.091l-13.596,4.946l0.252,6.433l3.098-0.54l1.834,5.042l-14.289,5.198
	L220.908,143.118z M231.581,125.111l9.622-3.5l-10.101-13.061l-0.172,0.063L231.581,125.111z"/>
<path fill="#FFFFFF" d="M302.658,125.724c-1.35,1.527-3.371,2.964-6.062,4.308c-2.693,1.344-6.161,2.163-10.401,2.457
	c-6.015,0.417-11.047-1.257-15.098-5.022c-4.051-3.765-6.3-8.868-6.746-15.312l-0.106-1.529c-0.462-6.667,1.022-12.219,4.453-16.657
	c3.431-4.437,8.144-6.863,14.138-7.279c3.486-0.242,6.71,0.093,9.672,1.004c2.961,0.911,5.467,2.248,7.516,4.011l0.621,8.96
	l-6.605,0.458l-1.667-5.876c-0.864-0.636-1.978-1.118-3.343-1.442c-1.364-0.325-2.913-0.429-4.646-0.309
	c-3.895,0.271-6.821,1.917-8.784,4.942c-1.962,3.023-2.781,6.86-2.459,11.51l0.11,1.59c0.313,4.526,1.624,8.067,3.933,10.621
	c2.308,2.555,5.459,3.693,9.455,3.416c1.795-0.125,3.236-0.378,4.326-0.761s1.938-0.8,2.542-1.251l-0.524-7.555l-6.396-0.048
	l-0.435-6.269l15.323-1.062L302.658,125.724z"/>
<path fill="#FFFFFF" d="M311.605,125.513l3.209,0.268l21.955-34.765l8.932,2.06l4.422,40.848l3.002,1.165l-1.205,5.229
	l-14.814-3.417l1.205-5.229l3.141,0.158l-0.533-6.415l-14.1-3.252l-3.289,5.534l2.893,1.233l-1.205,5.227l-14.816-3.417
	L311.605,125.513z M330.359,116.215l9.977,2.302l-1.363-16.454l-0.18-0.042L330.359,116.215z"/>
<path fill="#FFFFFF" d="M398.158,114.875c4.359,2.583,7.188,5.606,8.486,9.07c1.297,3.464,0.904,6.955-1.178,10.472
	c-1.146,1.936-2.66,3.307-4.541,4.116s-4.084,1.062-6.607,0.753c1.871,2.012,2.844,4.09,2.916,6.234
	c0.07,2.145-0.574,4.369-1.938,6.672l-1.156,1.952c-0.5,0.844-0.721,1.598-0.662,2.262s0.447,1.269,1.17,1.815l0.871,0.693
	l-2.75,4.643l-3.982-2.358c-2.514-1.49-3.881-3.213-4.098-5.171c-0.221-1.958,0.307-4.01,1.576-6.155l1.299-2.188
	c1.104-1.864,1.473-3.622,1.109-5.274c-0.365-1.652-1.436-3.042-3.215-4.167l-6.305-3.733l-5.998,10.13l3.645,3.228l-2.732,4.616
	l-15.904-9.419l2.732-4.616l4.557,1.63l16.324-27.562l-3.619-3.214l2.748-4.642l4.09,2.421L398.158,114.875z M382.667,128.576
	l5.328,3.155c2.146,1.271,4.025,1.766,5.641,1.486c1.613-0.278,2.932-1.279,3.951-3.003c1.021-1.723,1.305-3.415,0.85-5.072
	c-0.455-1.658-1.721-3.104-3.795-4.331l-5.459-3.234L382.667,128.576z"/>
<path fill="#FFFFFF" d="M401.316,163.526l2.479,2.057l37.902-15.939l6.145,6.801l-19.756,36.026l1.797,2.674l-3.98,3.596
	l-10.193-11.282l3.98-3.596l2.484,1.927l3.234-5.565l-9.699-10.736l-5.865,2.654l1.666,2.667l-3.979,3.596l-10.193-11.282
	L401.316,163.526z M422.017,166.639l6.863,7.597l8.299-14.273l-0.123-0.137L422.017,166.639z"/>
<path fill="#FFFFFF" d="M188.815,397.585l-3.95,3.675l-3.931-2.875l-28.058,26.099l-6.076-6.531l9.72-33.66l-0.146-0.112
	l-17.373,16.16l2.584,4.128l-3.928,3.653l-12.59-13.534l3.928-3.653l3.91,2.853l23.455-21.818l-2.562-4.105l3.951-3.674l3.236,3.479
	l6.097,6.556l-9.72,33.659l0.146,0.112l17.352-16.139l-2.584-4.128l3.951-3.675l9.332,10.032L188.815,397.585z"/>
<path fill="#FFFFFF" d="M205.885,437.267l-12.957-7.779l-6.563,10.935l12.353,7.416l3.087-4.367l5.834,3.503l-6.279,10.46
	l-30.277-18.179l2.762-4.601l4.547,1.657l16.49-27.464l-3.6-3.234l2.777-4.626l4.073,2.446l26.15,15.701l-6.296,10.485l-5.887-3.533
	l2.403-4.778l-12.248-7.354l-5.774,9.619l12.957,7.779L205.885,437.267z"/>
<path fill="#FFFFFF" d="M268.226,433.158l-3.315,11.423l-6.595-1.915l1.041-4.9l-7.891-2.29l-8.77,30.204l4.336,2.217l-1.496,5.152
	l-17.781-5.163l1.496-5.151l4.85,0.45l8.77-30.205l-7.86-2.282l-1.747,4.696l-6.564-1.906l3.316-11.423L268.226,433.158z"/>
<path fill="#FFFFFF" d="M331.697,438.453l-3.66,0.594l-7.633,39.081l-8.303,0.301l-9.246-29.146l-0.186,0.007l-7.111,29.736
	l-8.303,0.301l-10.502-38.424l-3.663-0.327l-0.194-5.392l16.42-0.595l0.194,5.392l-4.049,0.854l6.002,24.261l0.185,0.023
	l7.256-30.877l6.588-0.237l9.533,30.268l0.182-0.037l4.201-24.632l-4.102-0.557l-0.195-5.393l16.391-0.594L331.697,438.453z"/>
<path fill="#FFFFFF" d="M378.269,439.468c2.166,6.171,2.189,11.891,0.076,17.158c-2.113,5.269-6.025,8.904-11.732,10.908
	c-5.689,1.996-10.99,1.595-15.906-1.209c-4.914-2.802-8.453-7.288-10.619-13.459l-0.225-0.637
	c-2.15-6.132-2.193-11.835-0.123-17.109c2.068-5.273,5.947-8.909,11.637-10.906c5.707-2.003,11.041-1.602,16.002,1.207
	c4.959,2.808,8.516,7.277,10.668,13.409L378.269,439.468z M369.607,441.728c-1.529-4.358-3.68-7.579-6.443-9.662
	c-2.768-2.082-5.926-2.501-9.473-1.256c-3.549,1.245-5.723,3.523-6.521,6.836c-0.797,3.312-0.424,7.167,1.119,11.562l0.242,0.694
	c1.557,4.437,3.693,7.698,6.408,9.788s5.838,2.516,9.367,1.277c3.566-1.252,5.771-3.547,6.613-6.887
	c0.844-3.339,0.486-7.226-1.07-11.66L369.607,441.728z"/>
<path fill="#FFFFFF" d="M388.505,406.464c4.229-2.794,8.186-4.018,11.867-3.67c3.682,0.347,6.65,2.226,8.904,5.636
	c1.238,1.876,1.811,3.836,1.717,5.882s-0.83,4.138-2.211,6.273c2.629-0.806,4.922-0.771,6.883,0.102
	c1.961,0.873,3.678,2.426,5.154,4.659l1.25,1.894c0.541,0.818,1.123,1.348,1.746,1.584c0.621,0.238,1.336,0.151,2.143-0.259
	l1.006-0.479l2.975,4.502l-3.861,2.551c-2.439,1.611-4.586,2.088-6.443,1.428c-1.855-0.659-3.471-2.029-4.846-4.11l-1.402-2.122
	c-1.193-1.808-2.613-2.908-4.26-3.305c-1.645-0.395-3.361-0.038-5.152,1.071l-6.111,4.039l6.488,9.821l4.496-1.869l2.957,4.477
	l-15.422,10.189l-2.957-4.477l3.457-3.387l-17.658-26.729l-4.473,1.853l-2.973-4.501l3.963-2.619L388.505,406.464z M394.058,426.383
	l5.168-3.414c2.08-1.374,3.348-2.849,3.803-4.422c0.453-1.573,0.129-3.196-0.977-4.867c-1.104-1.671-2.502-2.665-4.191-2.98
	s-3.541,0.19-5.555,1.521l-5.295,3.498L394.058,426.383z"/>
<path fill="#FFFFFF" d="M434.726,421.552l2.531-4.125l-23.619-21.642l-3.889,2.882l-3.979-3.645l12.32-13.448l3.98,3.646
	l-2.389,3.967l8.793,8.056l2.631-2.871l-3.4-14.757l-2.053,1.695l-3.979-3.646l11.949-13.042l3.979,3.646l-2.662,4.13l3.391,17.991
	l21.322,2.821l3.588-2.782l3.955,3.624l-11.949,13.042l-3.955-3.624l1.594-2.283l-15.314-2.39l-3.375,3.685l9.107,8.346l3.744-2.725
	l3.955,3.624l-12.322,13.449L434.726,421.552z"/>
<path fill="#282561" d="M158.869,265.258h-16.613l-2.297-14.854c-2.194-2.194-4.965-3.93-8.308-5.206
	c-3.342-1.274-7.285-1.914-11.828-1.914c-9.698,0-17.163,3.522-22.395,10.565c-5.232,7.043-7.847,16.23-7.847,27.562v3.904
	c0,11.331,2.603,20.545,7.81,27.639c5.205,7.096,12.555,10.643,22.049,10.643c4.389,0,8.408-0.637,12.059-1.914
	c3.648-1.275,6.469-3.011,8.46-5.206l2.297-14.854h16.613v22.05c-4.492,5.207-10.222,9.354-17.188,12.44
	c-6.967,3.088-14.765,4.632-23.39,4.632c-14.956,0-27.205-5.18-36.749-15.542c-9.545-10.359-14.316-23.656-14.316-39.888v-3.751
	c0-16.179,4.746-29.476,14.239-39.888c9.494-10.413,21.769-15.619,36.826-15.619c8.625,0,16.409,1.568,23.351,4.708
	c6.941,3.139,12.684,7.287,17.227,12.44L158.869,265.258L158.869,265.258z"/>
<path fill="#282561" d="M263.19,284.244c0,16.334-4.67,29.833-14.012,40.5c-9.34,10.668-21.564,16.001-36.672,16.001
	c-15.057,0-27.217-5.333-36.48-16.001c-9.264-10.667-13.896-24.167-13.896-40.5v-1.684c0-16.231,4.619-29.706,13.857-40.424
	s21.386-16.078,36.443-16.078c15.107,0,27.344,5.358,36.711,16.078c9.365,10.719,14.049,24.192,14.049,40.424V284.244
	L263.19,284.244z M240.911,282.407c0-11.534-2.4-20.9-7.197-28.098c-4.798-7.197-11.895-10.795-21.283-10.795
	c-9.393,0-16.397,3.573-21.017,10.718c-4.62,7.146-6.929,16.537-6.929,28.174v1.837c0,11.74,2.334,21.195,7.005,28.366
	c4.67,7.172,11.675,10.757,21.016,10.757c9.442,0,16.537-3.585,21.284-10.757c4.747-7.17,7.121-16.625,7.121-28.366V282.407z"/>
<path fill="#282561" d="M420.767,284.244c0,16.334-4.67,29.833-14.01,40.5c-9.34,10.668-21.564,16.001-36.672,16.001
	c-15.059,0-27.219-5.333-36.482-16.001c-9.264-10.667-13.896-24.167-13.896-40.5v-1.684c0-16.231,4.619-29.706,13.857-40.424
	c9.236-10.718,21.387-16.078,36.441-16.078c15.107,0,27.346,5.358,36.711,16.078c9.365,10.719,14.049,24.192,14.049,40.424v1.684
	H420.767z M398.488,282.407c0-11.534-2.398-20.9-7.195-28.098c-4.799-7.197-11.895-10.795-21.285-10.795
	s-16.396,3.573-21.016,10.718c-4.619,7.146-6.928,16.537-6.928,28.174v1.837c0,11.74,2.334,21.195,7.004,28.366
	c4.67,7.172,11.676,10.757,21.018,10.757c9.441,0,16.537-3.585,21.283-10.757c4.746-7.17,7.119-16.625,7.119-28.366V282.407
	L398.488,282.407z"/>
<path fill="#282561" d="M474.941,227.667c12.76,0,22.826,3.279,30.203,9.838c7.375,6.559,11.062,15.146,11.062,25.763
	c0,10.668-3.688,19.243-11.062,25.725c-7.377,6.482-17.443,9.724-30.203,9.724h-18.834v24.729l11.943,2.297v13.397h-46.166v-13.397
	l11.867-2.297v-80.006l-11.867-2.297v-13.475h11.867H474.941z M456.107,281.488h18.834c6.227,0,10.936-1.696,14.127-5.091
	c3.188-3.395,4.783-7.72,4.783-12.977c0-5.359-1.596-9.787-4.783-13.283c-3.191-3.496-7.9-5.245-14.127-5.245h-18.834V281.488z"/>
<path fill="#282561" d="M313.847,285.59c0,3.312-2.688,6-6,6h-31.18c-3.312,0-6-2.688-6-6v-4.375c0-3.313,2.688-6,6-6h31.18
	c3.312,0,6,2.687,6,6V285.59z"/>
</svg>
